<svg xmlns="http://www.w3.org/2000/svg" width="1006.25" height="1200" viewBox="0 0 805.000000 960.000000"><g transform="matrix(.1 0 0-.1 0 960)"><path d="m6440 8000c-161-34-300-179-396-413-55-136-77-235-100-460l-6-58-41 3c-35 3-42 7-50 33-21 65-71 87-158 67-73-17-137 5-188 66-79 94-199 142-355 142-76 0-83-2-148-41-38-23-75-54-83-69-18-34-85-93-132-115-34-17-36-16-111 18-121 55-184 70-302 71-84 0-126-5-213-27-59-16-111-25-117-22-5 3-48 10-95 16-125 14-237-2-331-48-88-42-118-41-197 8-42 26-68 34-137 41-64 7-103 18-158 45-60 29-89 36-156 40-102 7-163-6-276-59-94-43-118-62-162-128-17-25-47-62-67-83-32-34-36-43-39-107-3-51 0-76 11-93 15-24 15-24-51-40-37-9-103-19-148-23l-81-6-22 118c-87 465-355 825-634 851-224 21-421-120-548-391-84-181-128-360-137-571l-7-140-197-20c-108-11-199-23-201-25-33-37-36-130-7-177 16-27 26-33 52-33 33 0 260 25 329 36l37 5 12-82c58-402 268-765 507-880 121-58 302-51 405 17 45 29 48 29 48 5 0-34 51-183 80-236 31-55 58-140 90-285 35-160 79-210 185-210l50-1 53-77c29-42 113-141 186-219 73-79 145-165 159-191 34-62 65-258 49-306-6-17-31-92-57-166-40-116-47-150-52-240-7-135 15-275 61-380 88-201 132-389 122-530-8-129-25-189-92-316-55-106-56-110-50-168 10-100 28-124 131-178 50-26 125-60 169-75 72-26 89-38 213-150 149-135 179-150 268-138 27 3 84 10 125 13 52 5 84 14 105 28 80 56 113 74 134 74 24 0 76 24 103 47 13 12 27 12 70 4 63-11 127 0 169 29 15 11 31 20 37 20 20 0 62 43 62 63 0 12 9 28 20 35 59 36-22 156-145 216-56 27-103 63-210 163-76 70-165 152-198 180-103 90-111 107-115 237-3 103 1 131 52 381 31 149 71 323 90 387 19 65 40 163 46 217 17 155 27 205 55 283 38 102 38 215 2 355-15 56-32 114-37 128-6 15-17 95-26 178-16 160-40 278-80 387-23 64-23 65-5 78 15 10 18 19 11 40-13 46-78 199-120 283-36 71-77 205-67 215 2 3 35-10 73-28 55-26 85-33 145-36 45-3 85 1 98 7 16 9 33 8 73-4 67-19 234-20 327 0 90 19 201 58 260 91 25 14 88 37 140 50 192 50 266 94 324 191 10 18 22 33 26 33 4 0 14-15 23-32 29-62 94-133 147-162 46-24 61-28 114-24 111 7 261 94 411 238 144 138 223 253 273 396 23 68 27 94 26 189 0 92-4 123-27 189-15 43-25 79-24 80 2 1 17 6 33 12 21 6 33 18 40 42 16 54 32 38 39-40 9-89 31-202 56-285 71-233 222-443 367-511 51-24 70-27 158-27 93 0 105 2 167 33 211 104 367 414 400 795 7 77 17 141 23 142 5 2 120 8 255 15 135 6 253 14 262 16 37 11 41 124 5 161-10 10-65 9-257-2-135-8-255-15-267-15-18 0-23 7-28 48-32 238-112 449-229 601-119 154-272 223-426 191m211-72c176-82 326-335 386-649 27-147 24-469-6-609-58-271-189-492-338-572-91-50-217-52-306-6-94 47-213 191-276 331-57 128-102 308-113 452l-3 40 155 12c85 6 188 12 227 12 70 1 73 2 88 31 8 16 15 44 15 63 0 42-35 91-59 82-22-8-423-36-429-30-11 11 28 273 53 360 34 118 111 275 172 350 56 69 154 139 216 154 66 16 158 7 218-21m-5029-290c133-66 250-204 348-410 57-121 93-237 123-403 29-163 31-504 4-640-29-146-75-283-135-400-146-285-386-399-611-289-109 54-255 220-339 389-47 95-90 228-117 360-14 67-25 133-25 147v24l266 29 265 28 20 38c27 54 25 101-7 138-32 38-24 38-323 6-129-14-236-23-239-20-8 8 16 267 33 351 44 213 139 422 244 536 107 115 205 161 338 155 70-3 92-9 155-39m3719-360c41-19 92-51 114-71l40-35-29-11c-16-6-42-21-58-33-19-13-53-23-93-27l-63-7-9 31c-12 41-37 39-41-3-3-29-9-36-60-58-31-14-63-31-72-38-10-10-118-22-360-41-190-14-466-37-615-50-148-13-273-21-277-19-3 2-9 18-13 34-14 62-90 93-269 110-165 16-202 26-259 68-37 26-46 38-34 40 25 5 127-27 158-49 14-10 46-23 71-28 60-14 261-26 284-17 33 13-2 28-76 34l-71 5 40 18c58 26 141 39 243 39 82 0 97-3 198-45 133-55 207-75 277-75 70 0 74 25 6 34-55 8-189 43-210 55-10 5 13 17 68 36 74 25 91 27 173 22 108-7 177-28 327-102 118-58 139-64 158-41 9 11 3 17-34 32-25 11-45 22-45 25 0 4 35 15 77 25 82 20 105 41 52 46l-32 3 27 32c61 72 142 104 252 100 68-3 92-9 155-39m-2252-57c28-10 75-40 103-66 29-27 77-64 107-84 55-36 56-55 2-27-38 20-41 20-41-3 0-42 61-57 143-34 54 15 67 15 170-2 154-23 150-22 174-58 23-33 73-214 73-262 0-27-29-45-75-45-45 0-55 23-55 131 0 79-3 99-14 99-21 0-29-50-25-164l4-101-47-5-48-6-1 36c-1 56-24 175-34 175-18 0-21-52-9-115 12-56 12-67-2-88-23-34-74-62-116-62-36 0-37 1-28 26 6 14 10 43 10 64 0 22 5 62 11 90 7 35 8 55 1 62-18 18-42-37-52-118-10-93-35-124-98-124-43 0-55 7-71 37-24 47-8 83 28 63 65-34 119 90 76 174-8 15-15 35-15 42 0 23-28 28-56 10-16-11-40-16-68-14l-44 3 16 48c8 26 12 51 8 55-12 12-55-45-62-83-3-19-11-35-18-35-6 0-113-9-238-21l-226-21-41 33c-37 29-41 37-41 79 0 35 8 59 34 100 65 104 86 130 128 160 100 73 314 98 437 51m2508-97c24-4 62-1 87 6 25 7 56 10 70 6 35-9 72-67 102-160 26-85 24-96-21-110-17-5-25 2-42 37-12 23-25 56-28 72-9 43-53 115-70 115-20 0-19-17 4-48 10-15 22-37 26-50 6-21 2-20-42 13-26 20-58 50-71 66-26 32-42 37-42 14 0-12-5-12-41 0-23 8-52 15-66 15-13 0-21 4-18 10 9 14 66 29 90 24 11-2 39-7 62-10m2028-15c4-17 3-35-1-39-5-4-94-13-199-19-104-6-217-14-251-17l-61-6-6 38c-4 21-5 40-3 42 4 3 374 27 473 31 39 1 42-1 48-30m-2119-63c206-55 337-253 337-511 0-74-5-105-30-175-41-119-87-185-233-331-132-133-215-194-306-228-130-49-210-16-292 121-89 147-98 158-132 158-55 0-160-66-160-101 0-29 29-24 84 16 80 57 107 47 71-26-56-109-127-153-302-191-57-12-119-32-149-49-218-123-505-145-676-52-96 52-238 236-238 308 0 28-24 60-38 51-7-4-12-25-12-48 0-63 66-178 159-276 43-45 74-85 69-88-15-9-71 7-108 31-27 17-61 26-144 35-60 6-122 18-137 26-66 34-138 125-204 261-73 150-91 167-169 168-61 0-72-24-16-37 74-18 92-30 111-75 10-25 34-71 53-103l35-59-35-7c-27-5-59 3-147 36-127 49-173 79-271 179-78 78-81 71 34 88 39 6 55 12 55 23 0 21-80 25-134 6l-43-14-25 56c-35 79-42 132-36 254l6 107 66 7c36 4 91 7 121 8l54 1 52-69c29-38 69-83 90-99 46-35 152-87 177-87 9 0 17-4 17-10 0-5-4-10-10-10-16 0-40-57-40-95 0-48 25-95 50-95 25 0 25 6-2 57-22 40-22 43-5 78 9 19 17 43 17 51 0 9 7 14 16 12 11-2 22-22 31-53 8-27 24-59 36-70 16-14 21-29 19-52-3-34 12-73 29-73 15 0 27 43 18 66-9 27 6 91 30 123 33 44 72 21 175-104 30-36 61-58 125-89l86-41 158-4c113-2 162 0 170 9 25 25-20 37-168 43-95 5-159 12-183 23-71 29-133 77-179 138-82 107-156 186-174 186-31 0-30-18 2-55 17-20 30-37 28-39-9-8-271 64-316 88-31 15-76 54-122 105-40 45-69 81-65 81 5 1 85 9 177 18l169 17-6-29c-15-74 17-128 87-147 35-9 51-8 92 6 28 9 61 15 75 14 55-5 89 2 124 26 28 19 50 25 90 25 38 0 61 6 77 19 17 13 33 17 55 14 43-7 101 14 120 42 9 14 14 39 12 62l-3 38 245 22c135 12 377 33 539 47 162 15 296 25 298 22 2-2-11-36-28-76-23-50-40-75-57-81-36-14-94 6-119 40-19 24-93 61-125 61-22 0-4-33 31-54 21-14 58-46 82-71 42-45 46-47 88-42 80 9 118 53 176 201 56 146 136 221 259 246 66 13 207 11 262-4m922-18l-3-33-259-20-259-20-14 33c-8 19-13 35-11 37 3 3 429 31 501 34l48 1-3-32m-1428-72c0-3-9-21-21-40-24-41 30-33-534-82-225-19-452-39-504-45-52-5-96-7-98-5-3 2-7 22-10 43l-5 39 463 38c255 21 505 41 554 45 117 11 155 12 155 7m-1762-171c28-61 37-58-265-88-153-15-391-39-529-54-138-14-259-23-268-20-11 4-16 19-16 47 0 22 3 40 7 40 4 0 123 11 263 25 618 61 737 73 766 74 24 1 33-5 42-24m-1848-205c0-59 9-57-460-111-239-27-435-49-435-49 0 0 0 28 0 63l-1 63 426 43c234 24 427 45 429 47 11 10 41-32 41-56m1035-167v-178l29-50c64-109 164-200 308-278 113-61 170-79 253-79 66-1 68-2 40-14-54-24-121-16-246 26-65 22-120 40-123 40-18 0-1-28 29-48 100-69 251-98 344-67l51 17 46-45c41-41 169-107 207-107 8 0 19-19 26-42 16-54 91-228 142-330 22-43 39-80 39-82 0-3-14 0-31 6-71 25-304-18-421-76l-66-34-7 45c-3 24-13 62-20 84-22 61-10 95 49 141 55 43 116 136 116 178 0 29-27 73-40 65-4-2-11-26-15-52-9-63-22-82-105-148l-69-55-42 45c-42 45-69 57-69 31 0-8 26-52 57-98 53-77 82-153 83-211 0-16-4-15-32 9-88 73-181 82-335 33-185-59-405-169-488-243l-40-36 28-23c15-12 27-26 27-30 0-13-45-7-66 8-28 19-38 46-73 191-18 74-44 151-69 200-44 88-77 188-90 276-9 55-8 58 20 85 16 15 39 44 51 63l21 34 12-40c17-60 46-111 108-192 63-83 80-133 71-203-6-40-4-50 9-55 29-11 46 15 46 73 0 67-15 103-92 222-109 167-120 226-68 344l33 77 17-28c22-36 81-87 128-111 20-10 115-46 211-80 155-55 176-61 189-47 13 13 13 18-2 40-24 38-62 53-207 86-259 59-326 136-279 319 11 44 20 87 20 96 0 10 14 33 30 52 25 28 30 42 30 87 0 43 4 57 25 76 42 39 26 49-39 24-14-5-16 5-16 74 0 45 3 83 8 85 4 3 27 7 52 11l46 7-4-93c-5-104 14-221 54-349 34-108 102-183 120-134 4 8-14 54-39 102-73 142-92 218-90 352 1 127 3 131 68 131h40v-177m-1955 68c0-20-5-43-10-51-23-34-42 46-24 99 8 26 34-10 34-48m2760-155c0-11-43-76-49-76-10 0-31 46-31 65 0 11 12 15 40 15 22 0 40-2 40-4m314-1249c83-273 87-293 101-448 8-86 21-174 29-195 8-21 26-70 41-108 20-53 26-89 27-147 0-96-20-160-78-245-41-60-56-104-34-104 5 0 14 8 20 18 21 32 3-157-25-258-69-256-95-367-119-505-14-82-33-188-42-235-18-98-13-234 11-280 8-16 47-57 86-92 40-35 113-101 163-148 158-149 220-198 294-235 43-22 86-54 107-78 37-43 46-77 20-77-9 0-20-11-25-24-12-32-29-41-37-21-5 16-121 75-145 75-5 0-8-8-6-17 2-11 22-23 58-33 47-13 55-20 58-42 4-35-38-68-87-68-51 0-125 39-129 67-2 12-17 34-33 47-27 23-51 32-130 50-14 3-43 19-65 36-21 16-78 57-127 90-71 49-97 75-140 137-28 42-72 104-97 137-41 54-45 64-36 88 13 36 2 46-24 23-19-18-20-17-36 21-13 32-15 58-10 139 13 199 24 276 92 635 35 182 35 188 29 365-6 146-3 208 12 325 10 80 18 190 18 246 0 99-1 101-47 195-27 55-51 123-58 160-15 85-43 181-93 313l-40 109 24 17c39 30 202 109 244 119 22 5 78 9 125 10l85 1 19-63m-659 13c81-39 100-65 159-220 66-177 83-235 91-323 5-47 16-86 37-125 79-152 89-267 35-410-46-117-50-137-33-151 11-10 17-8 26 6 24 38-10-408-55-722-69-475-79-597-55-661 6-15 35-55 63-88 29-34 89-108 134-166 101-129 113-141 238-225 65-44 119-72 155-81 69-18 102-42 114-82 12-42-2-57-73-79-31-9-67-25-80-35-13-10-29-18-37-18-7 0-26-11-43-25-25-22-38-25-93-24-35 1-84-2-111-6-80-13-125 12-252 136-94 92-119 112-168 128-73 26-212 94-254 127-36 27-57 62-66 110-5 25 6 54 52 147 81 160 105 254 98 377-9 158-39 279-128 505-42 107-43 113-47 251-4 133-2 147 28 260 17 65 48 160 69 209 56 132 54 125 26 147-14 11-25 29-25 41 0 35-31 150-52 191-11 22-88 110-172 195-140 144-156 165-215 275l-64 118 24 19c72 56 367 190 464 212 56 13 172 6 210-13"/><path d="m6487 7853c-13-13-6-21 37-47 100-58 195-196 253-366 127-373 84-851-101-1128-38-56-51-84-44-93 15-23 74 55 134 176 100 204 138 434 116 703-28 341-136 593-306 719-57 42-76 50-89 36"/><path d="m1405 7580c-3-5 31-47 77-92 250-249 363-589 363-1098 0-172-4-232-19-300-25-115-78-265-132-373-44-86-50-123-21-111 20 7 109 199 147 314 86 262 92 594 19 954-55 270-169 489-342 654-65 62-80 71-92 52"/><path d="m3599 6950c-14-4-47-20-72-35-35-20-65-28-122-32-76-6-109-23-88-44 8-8 18-6 34 5 17 10 45 14 90 13 59-2 72 2 118 31 57 35 72 38 101 20 16-10 22-10 32 0 11 11 9 17-11 33-25 20-40 22-82 9"/><path d="m3980 6690c0-6 19-38 43-71 36-52 42-68 43-113 0-29 3-57 7-63 4-6 27-16 51-23 69-19 90-44 82-97-3-23-15-61-26-83-27-52-25-60 10-60 52 0 138-39 162-73 12-18 32-40 43-50 30-27 116-67 145-67 31 0 70 26 70 46 0 17-14 18-40 2-27-17-67 4-165 89-78 68-124 93-171 93-17 0-22 4-18 15 4 8 16 15 28 15 46 0 122 47 184 115 60 65 83 108 67 123-4 4-21-11-39-33-47-60-96-104-151-136-27-16-53-29-57-29-3 0-5 23-5 51 2 44-2 54-26 74-15 14-45 30-67 36-38 12-40 14-34 45 8 42-25 117-74 167-35 36-62 48-62 27"/><path d="m4770 6463c-31-39-42-69-79-228-26-108-26-115-3-115 27 0 42 34 53 123 15 118 26 153 61 192 17 20 28 41 24 50-9 23-22 18-56-22"/><path d="m4900 6470c-48-52-55-81-43-189 11-103 33-168 58-177 33-13 37 11 16 81-12 37-24 98-27 135-6 66-6 68 25 100 33 35 42 80 15 80-9 0-28-13-44-30"/><path d="m3985 6404c-24-9-64-14-100-12-50 2-60 0-63-14-10-54 227-25 246 30 5 16-33 14-83-4"/><path d="m3298 5899c-26-15-22-29 8-29 35 0 76-46 92-104 13-48 45-75 76-63 23 9 19 26-8 38-14 7-27 23-31 38-6 26-60 110-79 123-15 11-38 9-58-3"/><path d="m2540 5541c0-5 12-12 27-16 15-3 76-28 137-55 60-27 113-47 118-44 19 12 6 45-24 63-63 39-258 78-258 52"/><path d="m3471 4488c-10-24-37-61-60-83-49-46-52-65-12-65 35 0 93 60 123 126 21 48 18 64-13 64-14 0-25-13-38-42"/><path d="m3407 4155c-24-51-22-62 24-122 35-47 40-59 35-88-8-41 7-53 28-23 26 37 20 76-20 121-35 38-36 42-30 93 7 65-11 74-37 19"/><path d="m4059 1986c30-32 43-33 39-3-2 16-11 23-33 25l-30 4 24-26"/><path d="m2886 4631c-4-6-13-31-21-56-7-25-32-78-55-117-31-52-39-73-31-81 20-20 43 5 94 99 34 65 46 98 45 123-3 34-20 51-32 32"/><path d="m2818 4274c-11-17 13-130 39-183 16-34 37-60 59-73 32-19 34-24 34-72 0-52 21-99 37-83 4 5 8 47 8 93 0 71-3 85-17 90-33 10-98 96-113 149-17 56-39 93-47 79"/><path d="m2946 3508c-3-13-9-63-15-113-9-74-18-106-55-180-37-74-43-92-32-103 22-22 72 50 102 143 28 88 51 233 41 259-9 24-36 20-41-6"/><path d="m2790 2381c0-10-13-43-30-74-35-66-37-100-10-144 20-33 61-45 75-23 3 6 1 10-4 10-21 0-51 41-51 69 0 16 11 53 25 83 28 61 32 98 10 98-8 0-15-8-15-19"/><path d="m3600 1855c0-8 11-25 25-37 14-12 25-28 25-35 0-18 19-16 27 3 3 9-7 28-28 50-36 37-49 42-49 19"/><path d="m3412 1817c-18-5-31-15-29-21 4-11 23-12 67-1 21 5 28 0 42-25 18-32 38-33 38-1 0 19-51 62-72 60-7-1-28-6-46-12"/><path d="m3347 1774c-10-11 3-24 24-24 10 0 19-7 19-15 0-8 9-15 20-15 27 0 25 25-2 44-23 17-50 21-61 10"/></g></svg>