<svg xmlns="http://www.w3.org/2000/svg" width="1097.5" height="1200" viewBox="0 0 878.000000 960.000000"><g transform="matrix(.1 0 0-.1 0 960)"><path d="m4327 7930c-62-11-123-47-176-105-85-92-110-190-111-428 0-71 5-159 11-196 8-57 7-83-10-166-12-54-26-104-33-112-20-25-80-50-158-67-41-9-109-26-150-37-41-12-118-25-170-30-156-14-210-39-278-131-50-68-61-77-117-93-35-11-47-12-49-2-2 7-8 27-14 45-10 31-9 33 26 51 72 38 101 72 112 130 13 70 13 148-1 211-9 43-18 56-52 82-112 82-237 109-420 91-126-13-207-39-269-86-76-58-83-75-83-190 0-132 22-182 101-233 51-33 53-36 52-78 0-24 5-60 12-80 15-47 6-124-26-223-13-40-24-88-24-106 0-28-6-35-42-51-23-11-63-40-89-65-42-41-48-52-54-105-11-86 0-158 32-218 53-97 166-138 381-138 124 0 192 12 270 46 85 38 131 79 138 125 5 28 11 39 24 39 9 0 25 9 35 20 11 12 31 20 51 20 48 0 84 17 126 57l37 36 26-59c14-32 39-73 56-90 26-27 31-43 45-135 20-139 39-203 79-269 32-54 48-110 60-224 4-32 14-81 22-110 8-28 26-100 39-161 19-92 21-113 10-130-7-11-19-44-25-72-12-49-16-54-50-63-84-22-150-30-265-30-145-1-201-10-227-39-11-11-28-21-38-21-39 0-170-53-232-94-63-42-166-92-241-115-41-14-107-79-136-138-55-106-67-221-34-314 11-31 25-83 32-115 21-103 92-316 133-399 43-86 93-164 169-263 87-112 218-383 218-450 0-22-18-53-62-110-35-44-83-109-108-143-64-90-128-158-172-180-21-11-59-38-86-62-26-24-65-53-85-66-68-42-85-108-42-159 14-17 25-36 25-44 0-18 82-101 118-119 15-7 37-22 50-33 15-14 38-20 75-21 28-1 65-7 80-13 54-23 130-9 188 33 19 13 64 40 100 59 45 24 86 56 125 100l59 66 110 30c111 32 194 75 221 115 8 12 17 42 20 67 8 55-8 108-77 260-27 58-69 173-93 255-25 81-65 207-90 278-54 157-66 224-66 376 0 128-20 216-67 297-14 24-23 45-21 47 1 2 53-10 113-25 61-16 124-29 140-30 17 0 44-9 60-20 24-16 47-20 109-20 95 0 184 32 396 142l135 70 65-8c36-5 117-9 180-9l115-1 166-85c261-134 384-165 472-120 21 11 57 22 80 26 23 4 86 18 141 31 54 14 100 23 103 21 2-3-5-20-17-39-49-84-62-145-70-333-7-168-9-186-39-270-18-49-51-146-72-215-22-69-56-174-75-235-20-60-60-173-91-250-62-157-62-171-3-252 35-48 126-96 200-107 25-4 57-9 72-12 16-3 54-34 95-76 42-43 93-83 133-104 36-19 80-45 98-59 44-32 118-47 165-34 20 5 39 13 41 18 3 4 27 6 54 3 41-3 52 0 79 22 17 14 35 26 41 26 18 0 122 101 122 118 0 9 9 26 21 38 11 12 23 40 26 63 5 38 3 44-34 78-74 70-142 124-185 148-63 35-113 87-211 221-48 65-101 137-117 158-38 49-37 67 1 163 53 135 126 264 214 383 47 63 107 158 134 210 47 92 119 299 142 411 6 29 22 92 36 138 26 83 26 84 10 158-32 148-98 247-185 279-112 41-166 67-238 114-68 44-207 100-250 100-8 0-17 6-20 14-10 26-61 35-222 41-86 4-192 13-234 22l-77 16-21 93c-21 90-21 96-5 181 9 48 27 129 40 178 13 50 29 128 34 175 13 106 24 144 54 189 36 56 53 108 71 216 9 55 18 113 21 129 3 15 19 44 36 64 28 32 53 77 73 135 5 16 9 15 33-14 30-36 94-68 135-69 15 0 42-10 61-22 30-20 35-30 39-72 5-41 11-54 39-78 85-70 212-108 364-108 187 1 307 37 370 111 32 38 55 118 55 188 0 115-30 162-137 223-45 25-53 34-53 59 0 15-12 63-26 106-27 84-33 158-19 278l7 70 50 30c68 41 100 103 106 205 8 137-24 195-142 254-97 49-321 72-448 45-61-13-151-56-196-94-40-33-57-109-49-220 8-110 16-126 86-171l60-39-6-45c-3-25-7-47-9-49-2-2-19 0-38 3-37 7-76 40-140 120-54 68-119 95-246 107-55 4-128 17-162 27-35 11-112 28-173 37-60 10-121 24-133 32-31 19-47 61-66 165-14 81-14 89 4 135 40 106 54 375 25 486-28 109-82 187-161 233-36 21-59 26-136 29-51 2-114 0-141-5m179-41c173-31 228-134 227-424-1-190-15-246-92-370-95-155-155-205-243-205-78 0-112 16-175 83-112 121-143 213-143 439 0 143 17 264 45 318 25 47 84 109 126 131 67 34 164 45 255 28m1649-762c58-16 107-40 152-74 39-30 58-99 50-182-7-78-36-133-89-164l-43-25-28 26c-39 37-145 43-232 14-53-18-62-19-87-6-37 19-54 18-100-8-39-22-39-22-75-3-73 40-90 64-98 143-9 88 1 164 25 195 24 30 112 78 175 94 62 16 278 10 350-10m-3149-13c27-9 72-31 100-50 49-31 53-36 64-90 14-68 6-188-16-221-8-13-38-36-66-52l-52-30-28 21c-31 22-84 26-115 10-15-8-36-6-82 9-103 32-188 24-238-23l-22-20-42 28c-63 43-84 91-84 194 0 99 11 122 77 170 74 54 210 82 364 75 50-2 113-12 140-21m1723-215c18-48 60-68 181-85 61-8 130-22 153-30 23-9 104-26 180-39 161-28 195-44 254-122l43-55-76-39c-113-56-151-99-88-99 13 0 41 15 61 34 21 18 55 39 75 45 47 15 125 16 163 1 28-11 29-13 12-25-9-7-24-38-32-69-8-31-26-79-40-106-32-63-32-80 0-80 32 0 49 28 70 112 10 36 26 76 37 88l20 22 19-29c11-15 19-46 19-68 0-54 15-106 44-147l23-34-48-17c-57-21-129-73-146-107-7-14-13-53-13-88v-62l-43 45c-42 44-77 58-77 32 0-7 6-19 13-26 10-11 9-12-6-4-31 16-94 110-127 190-35 84-61 126-100 160-49 43-68 17-29-39 12-16 20-30 18-32-2-1-21-13-42-25-21-13-50-42-64-65-14-22-48-71-76-108-46-60-59-70-133-103-45-20-100-39-123-42-31-4-41-10-41-24 0-17 8-19 61-19 113 0 229 83 326 233 51 79 102 113 129 85 27-27 29-98 5-146-11-22-30-66-42-97-11-30-29-60-39-65-24-13-35-53-54-192-17-116-32-163-72-216-32-42-40-71-54-200-6-57-27-165-45-240-19-76-35-151-35-168 0-27-5-32-39-42-54-17-53-17-29 33 17 35 19 48 10 57-9 9-15 4-26-23-30-72-72-116-130-138-93-34-106-36-106-13 0 11 12 51 26 88 19 50 27 90 28 144 1 98-17 103-25 8-4-43-17-100-33-138-15-36-29-82-33-102-4-28-11-40-27-43-89-20-116-25-155-25-30 0-48 5-57 18-12 16-14 16-27-2-15-21-54-20-164 4-50 11-53 14-53 42 0 16-14 62-32 101-23 54-32 91-36 150-5 81-16 99-26 45-8-45 9-139 40-226 15-40 24-75 20-79-3-4-40 4-81 17-70 22-78 27-105 71-28 47-61 74-73 62-4-3 7-21 24-40 17-20 28-37 25-40-2-3-27 3-55 12-34 11-51 22-51 33 0 9-16 78-35 154-18 75-39 183-45 240-14 133-18 145-50 193-50 73-60 104-75 215-19 144-23 160-50 190-30 32-105 206-105 242 0 86 51 104 112 41 20-21 43-52 51-69 24-48 127-148 186-182 62-35 133-48 175-32 38 14 21 35-34 43-22 3-76 22-120 42-83 40-130 86-193 195-15 25-47 59-71 75-25 17-46 33-46 36 0 3 9 14 20 24 22 20 27 65 7 65-29 0-88-80-140-190-30-63-71-133-91-155-21-22-35-32-32-22 17 52-42 32-90-30l-29-38-6 99-6 100-37 32c-21 18-66 45-100 60l-63 27 23 35c28 41 44 93 44 146 0 22 9 53 21 73l21 34 24-22c14-13 28-44 35-78 20-94 55-142 88-121 11 6 6 25-23 93-20 46-36 93-36 104 0 11-9 32-20 46-23 29-20 32 33 42 71 14 139-2 196-46 51-37 93-50 106-30 8 13-38 46-122 88-47 23-70 40-65 47 46 64 90 110 122 126 21 11 93 29 161 40 68 12 152 30 186 40 33 10 89 24 124 30 74 14 169 59 197 95 13 17 23 49 27 93 4 37 10 71 12 75 3 4 26-23 53-60 43-62 110-122 167-152 12-6 57-11 99-11h78l67 68c36 37 83 94 105 126l39 59 12-89c6-49 16-101 22-115m1452-218c23-24 29-38 29-73 0-24-5-49-12-56-7-7-12-37-11-75 1-34-1-57-5-51-14 21-43 23-139 9-77-12-98-13-105-3-9 13-4 85 6 96 4 3 56 8 116 10 81 3 110 8 110 18 0 26-62 29-186 8-31-6-32-5-36 38-3 23-6 50-9 58-6 21 82 49 154 50 52 0 62-3 88-29m-3376-4c25-9 38-20 36-28-3-8-6-33-9-56-5-49-4-48-101-32-72 11-121 5-121-17 0-11 17-14 78-14 138 0 170-20 157-93l-7-34-61 13c-78 17-159 18-175 2-9-9-12 2-12 49 0 34-4 65-10 68-5 3-10 29-10 56 0 43 5 55 31 81 29 30 32 31 97 25 37-3 85-12 107-20m3086-6c23-18 24-25 21-122-3-117-11-139-50-139-45 0-52 16-52 112 0 80-8 105-25 78-4-6-7-43-7-82 0-70 0-71-20-51-27 27-40 89-27 135 20 75 107 112 160 69m-2902-5c71-37 89-148 34-209-17-19-18-17-23 59-3 49-10 79-17 82-10 3-13-19-13-87 0-79-2-92-20-104-25-17-68-11-74 12-3 9-7 62-8 119-3 98-2 105 21 123 28 23 62 24 100 5m3171-266c9-5 19-5 26 1 20 16 27-94 9-138-29-69-37-73-145-73-77 0-100 3-111 16-22 27 8 67 56 76 62 11 123 9 145-4 22-14 35-6 26 17-13 34-88 42-187 19-17-4-31 0-42 11-35 34-13 56 70 71 85 15 134 16 153 4m-3532-11c29 16 192-6 216-29 15-14 16-21 7-39-13-24-26-25-101-11-60 11-127-1-137-26-8-23 4-29 31-14 18 9 46 11 101 5 66-6 78-10 92-32 30-45 10-57-103-64-54-3-104-1-111 4-7 5-21 28-33 52-18 36-20 54-14 104 5 49 9 59 20 50 9-7 19-7 32 0m3265-27c-3-13 2-33 12-48 12-19 14-29 6-37-6-6-11-24-11-39 0-32-19-37-42-10-26 29-37 56-43 108l-7 50 46-1c42 0 45-2 39-23m-2927-34c-8-60-30-104-63-126-22-14-23-13-23 20 0 19-5 39-11 45-8 8-6 18 6 37 10 14 15 35 12 45-4 17 1 21 32 24 20 2 40 4 45 5 5 1 5-22 2-50m3276-135c-2-13-11-23-19-23-11 0-13 5-8 18 4 9 10 31 13 47 5 30 6 30 12 5 3-14 4-35 2-47m-3685-35c-14-8-26 35-19 66 4 13 8 8 18-20 10-30 10-40 1-46m3693-37c36-12 86-36 111-55 39-29 49-43 59-86 16-66 8-148-21-207-19-39-31-50-83-74-152-70-402-65-547 12-87 47-94 61-94 190 0 94 3 111 21 136 25 34 97 77 161 98 72 23 305 14 393-14m-3357 8c67-14 163-65 191-103 18-24 21-42 21-136 0-129-10-149-96-192-80-41-161-58-274-58-132 0-208 13-275 48-78 41-104 90-105 197 0 44 6 94 13 111 15 36 105 99 166 115 100 28 268 36 359 18m2106-1401c5-13 11-41 15-63 6-37 5-41-21-52-16-7-58-38-93-68-83-71-125-90-235-110-91-17-124-33-110-55 11-18 128-7 195 19 30 11 91 48 135 82 44 33 95 67 113 75 30 13 37 13 59-1 41-27 128-35 288-26 86 5 156 5 165 0 10-6 1-9-30-9-88-1-178-66-238-174-31-54-65-91-169-186-86-78-150-245-141-365 3-37 15-80 32-113 14-28 25-52 23-52-17 0-164 75-261 133l-120 72-105-3c-59-1-149 5-202 13-115 18-126 15-252-62-85-53-225-123-246-123-5 0 2 21 16 46 70 124 18 360-103 474-113 105-151 148-181 201-17 30-55 76-84 102-51 45-62 49-174 71-11 2 77 3 195 2 194-1 218 1 246 18 43 26 63 18 169-60 101-75 148-98 231-113 79-15 104-14 111 5 9 25-9 35-108 54-125 24-131 27-228 104-46 37-92 71-102 76-15 9-16 15-7 43 19 58 23 58 153 9 268-101 316-115 408-120 136-7 239 19 484 123 71 30 136 55 146 55 10 0 21-10 26-22m-1611-262c59-30 72-45 111-128 17-37 53-91 80-120l49-53-80-73c-44-40-99-83-124-94-24-12-44-25-44-29 0-32 79-6 138 45 25 23 73 57 106 78l61 36 31-44c97-137 109-285 30-372-28-30-40-36-88-40-53-4-297 35-358 58-14 5-79 14-146 20-128 12-196 4-207-24-10-26 16-36 58-25 58 16 146 7 182-19 61-43 84-133 107-407 13-162 18-190 50-280 60-164 157-476 153-488-3-7-19 18-36 56-32 68-51 85-51 45 0-49 23-101 66-149 48-54 56-92 29-139-20-34-18-50 4-50 26 0 39 19 43 65l3 40 33-62c42-81 45-151 7-189-33-33-111-68-208-93-90-23-119-42-177-111-39-47-59-60-240-157-69-36-130-10-130 57 0 40 27 67 90 87 44 14 56 23 58 42 3 20 1 23-15 16-10-4-31-12-48-18-97-32-135-69-135-133 0-56-40-71-79-30-18 19-21 31-16 54 7 33-6 49-23 29-6-6-12-25-14-42l-3-30-18 33c-10 18-22 30-28 26-15-9-39 16-39 40 0 13-11 33-25 46-46 43-24 98 52 131 24 10 42 23 39 28-8 12 20 34 97 76 37 21 79 52 92 69 92 118 278 374 282 386 6 21-61 208-107 299-21 42-58 103-82 136-157 213-227 369-353 779-36 116-32 192 15 286 60 120 88 145 208 184 28 10 80 37 115 60 106 73 193 108 287 117 99 9 142 3 198-25m2348-38c45-20 108-54 140-76 33-22 96-55 141-72 45-17 93-40 107-51 14-11 46-62 72-113 57-115 61-176 19-307-91-283-113-345-158-444-28-60-95-177-149-258-117-176-155-248-204-391-42-122-47-102 55-232 31-40 92-121 136-182 53-74 92-117 115-129 75-39 140-84 140-98 0-9 18-22 39-31 38-15 60-38 74-76 4-12-3-28-23-48-17-17-30-41-30-53 0-28-18-47-36-40-8 3-18-6-25-21-16-35-27-33-31 6-2 22-9 34-21 36-16 3-17-1-12-30 8-44-26-92-59-82-27 9-36 22-36 57 0 34-16 65-44 88-24 20-146 62-154 54-14-14 19-41 66-55 60-18 81-41 82-87 0-75-72-94-156-41-27 17-75 44-106 60-36 18-74 48-105 84-62 72-95 91-193 115-103 24-175 61-200 102-27 43-25 57 12 150l33 79 8-38c9-45 23-64 48-64 24 0 24 11-1 57-11 21-20 45-20 54 0 9 20 43 45 74 41 54 51 79 58 144 4 39-20 35-33-6-14-41-50-106-56-100-2 2 7 33 20 68 13 35 36 111 51 169 16 58 45 148 66 200 54 137 66 193 84 402 18 218 39 303 86 342 39 33 103 50 154 41 91-16 117-9 95 25-15 24-250 19-360-8-153-38-313-63-357-56-55 8-99 52-118 118-19 63-19 89 1 157 14 48 88 179 101 179 14 0 132-77 163-105 41-38 90-65 119-65 39 0 30 18-22 44-29 14-79 52-112 84-33 32-68 63-78 68-15 9-11 16 33 63 28 30 66 86 84 125 39 81 62 106 126 136 39 18 59 20 145 17 87-4 111-9 181-39"/><path d="m5835 6885c-61-13-158-47-185-65-10-6-12-12-5-19 7-7 34-1 85 18 171 66 335 63 499-10 68-31 91-35 91-18 0 17-140 76-222 93-92 19-181 19-263 1"/><path d="m2695 6876c-70-13-220-70-231-87-15-25 13-25 69 1 93 42 180 61 276 61 97 0 151-10 247-46 45-17 71-22 78-15 6 6-9 18-45 34-120 55-272 75-394 52"/><path d="m4646 6992c-15-39-47-102-72-139-43-66-62-121-49-143 11-17 24-2 36 43 6 23 26 65 44 92 32 48 80 185 73 207-2 6-16-21-32-60"/><path d="m4100 7033c0-29 50-145 83-190 19-27 39-62 42-78 13-56 16-65 26-65 15 0 10 69-7 103-9 18-34 56-55 86-22 30-39 59-39 65 0 15-49 94-50 79"/><path d="m3685 6681c-3-5 9-35 25-66 41-77 39-97-15-154-25-26-45-53-45-60 0-38 94 31 117 87 17 41 10 79-24 144-25 46-47 65-58 49"/><path d="m5051 6644c-40-62-48-114-24-161 24-48 89-101 105-85 9 9 0 24-37 63-44 47-47 54-42 91 3 21 17 57 32 79 24 37 26 59 4 59-5 0-23-21-38-46"/><path d="m4876 6645c-16-9-48-33-71-54-56-52-73-60-182-87-137-34-198-79-191-142 4-39 21-32 39 18 19 51 37 62 144 85 44 10 89 22 100 28 38 19 215 149 215 158 0 13-21 11-54-6"/><path d="m3940 6636c0-35 155-136 256-167 83-25 97-37 113-90 13-42 30-55 57-45 15 6 15 8 2 24-8 9-22 36-33 59-22 53-44 67-142 94-96 26-114 36-181 93-56 48-72 55-72 32"/><path d="m3626 6296c-48-18-60-30-52-51 5-15 10-14 43 6 45 28 123 31 151 6 10-9 24-17 30-17 17 0 15 35-3 50-22 19-124 22-169 6"/><path d="m4993 6289c-36-11-63-46-41-54 7-3 31 4 53 15 51 26 105 26 139-1 27-21 46-18 46 6 0 40-111 59-197 34"/><path d="m4335 5976c-20-51-57-89-100-103-16-5-30-16-30-24 0-23 50-13 99 20 33 23 48 42 60 78 20 57 20 73 2 73-8 0-22-20-31-44"/><path d="m4405 6010c-4-6 3-35 15-65 23-57 73-100 130-112 45-9 39 20-10 42-49 22-71 46-90 98-16 42-33 56-45 37"/><path d="m3656 5819c-50-34-62-50-50-70 5-9 11-7 21 7 7 10 35 30 60 44 26 14 46 30 46 35-4 20-30 15-77-16"/><path d="m5056 5841c-7-11 11-26 41-35 12-4 34-21 48-38 19-22 29-28 37-20 8 8 6 18-6 37-30 46-105 81-120 56"/><path d="m4332 5775c-24-49-50-66-130-85-69-16-106-48-122-105-15-54-31-69-66-61-21 6-25 4-22-11 9-49 96-12 123 53 14 34 32 46 127 80 65 23 114 72 121 121 7 56-6 59-31 8"/><path d="m4415 5807c-21-54 56-141 152-171 64-20 96-44 113-86 15-37 74-69 98-54 9 6 19 19 20 29 3 14-1 16-21 11-40-10-58 3-83 60-27 62-49 79-124 95-76 16-86 23-120 81-22 40-31 48-35 35"/><path d="m5060 5714c-16-26-31-49-32-53-2-3-20-14-40-23-35-16-38-16-38-1 0 9 11 31 26 50 17 22 21 33 11 33-24 0-58-47-64-87-6-46-53-86-91-77-25 7-29-8-6-26 13-11 23-9 61 11 25 13 62 33 83 44 53 28 78 53 111 110 31 54 34 65 19 65-6 0-24-21-40-46"/><path d="m3790 5716c0-3 9-21 21-41 12-19 18-42 15-50-10-26-55-17-87 17-22 25-29 28-29 15 0-44 62-93 107-85 10 1 33-8 51-21 42-30 95-34 100-7 3 15 0 18-21 12-20-5-31 0-51 25-14 17-29 43-32 57-9 37-42 82-60 82-8 0-14-2-14-4"/><path d="m4384 5668c-5-7-7-51-6-97 3-140 41-189 156-198 52-5 67-10 71-24 3-10 14-21 24-24 23-7 68 12 76 33 9 24-3 27-25 7-21-19-22-19-50 11-23 25-39 32-85 38-107 12-135 48-135 173 0 78-10 108-26 81"/><path d="m3740 5527c0-8 9-17 21-20 35-9 16-32-25-31-24 1-46 10-61 24-19 18-25 20-25 8 0-39 83-84 127-67 24 9 29 7 50-20 36-46 123-63 123-25 0 9-12 14-34 14-26 0-40 7-60 33-62 76-72 86-93 92-16 4-23 2-23-8"/><path d="m4986 5508c-17-18-41-46-52-62-15-20-32-31-60-35-47-8-51-25-7-29 38-4 89 21 97 46 5 16 14 18 55 14 45-4 52-1 87 31 45 41 40 62-6 23-31-26-54-31-84-20-23 9-20 23 9 34 14 5 25 14 25 20 0 21-33 9-64-22"/><path d="m4350 5431c0-11-11-28-24-36-20-13-32-14-63-6-79 22-173 9-173-24 0-22 22-30 32-11 12 22 45 20 110-5 42-16 59-18 81-10 29 11 69 67 65 90-5 23-28 25-28 2"/><path d="m4767 5443c-4-3-4-23-1-43 5-28-1-53-25-108-31-71-40-126-21-137 19-12 30 5 19 28-8 18-3 35 25 90 25 48 36 82 36 112 0 40-19 73-33 58"/><path d="m3985 5419c-9-29 1-78 31-145 14-32 23-66 20-77-6-25 3-47 20-47 25 0 17 79-17 150-24 51-29 72-24 102 5 30 4 38-8 38-9 0-19-9-22-21"/><path d="m4387 5373c-4-3-7-42-7-86 0-88-17-138-57-164-22-14-31-15-76-3-94 24-183 12-150-21 8-8 16-7 31 2 17 11 31 8 92-14 66-24 75-25 105-13 49 21 90 95 86 158-5 102-5 114 3 131 6 12 4 17-6 17-8 0-18-3-21-7"/><path d="m3720 5355c0-36 73-108 121-120 20-5 31-18 43-50 18-47 58-80 84-70 12 5 8 12-21 36-22 18-37 39-37 52 0 27-39 96-62 111-21 13-36 0-20-16 22-22 13-29-17-14-16 9-40 29-54 46-24 28-37 37-37 25"/><path d="m5028 5331c-25-31-88-68-88-52 0 6 8 14 18 20 13 8 14 12 5 22-20 20-68-38-87-104-12-43-23-61-41-69-25-11-30-20-19-31 21-21 94 55 94 97 0 9 15 19 39 26 41 11 111 77 111 105 0 21-5 19-32-14"/><path d="m4422 5133c2-22 12-31 51-47l49-20 64 34c60 32 64 33 82 17 23-21 42-22 42-3 0 20-24 36-62 42-24 4-46-2-81-20-60-32-81-33-113-1-32 32-36 31-32-2"/><path d="m4380 5034c-11-28-13-107-4-141 4-14 14-23 26-23 17 0 19 4 12 23-4 12-8 55-8 95-1 75-10 90-26 46"/><path d="m5881 5880c-77-18-171-58-171-71 0-18 18-16 70 6 69 29 193 55 262 55 74 0 173-23 262-60 77-32 113-33 67-1-119 80-328 111-490 71"/><path d="m2631 5879c-96-19-241-78-241-99 0-15 27-12 68 9 161 82 372 86 548 10 34-14 50-17 58-9 14 14 0 23-74 51-114 43-256 58-359 38"/><path d="m3990 4256c0-18 14-34 50-60 57-41 105-109 115-164 9-53 32-84 58-80 18 2 21 9 19 33-6 54-65 148-138 223-75 76-104 89-104 48"/><path d="m4728 4224c-107-77-226-304-159-304 27 0 48 33 63 99 10 46 21 65 63 106 28 27 63 60 79 72 28 23 31 46 5 51-8 1-31-10-51-24"/><path d="m2845 4131c-13-22 214-151 265-151 43 1 245 83 245 100 0 28-47 22-127-15-99-47-124-45-263 24-112 56-111 55-120 42"/><path d="m2882 3964c-5-11-13-44-16-75-5-40-16-69-41-104-37-51-46-101-20-111 22-9 48 15 35 31-13 16-5 39 34 93 23 33 31 56 34 103 5 64-8 96-26 63"/><path d="m2995 3552c-25-118 222-600 269-524 3 4-26 51-63 104-109 154-171 302-171 407 0 49-25 58-35 13"/><path d="m3199 2479c-7-13-28-55-47-94-18-38-56-107-84-153-38-61-48-86-40-94 8-8 15-8 27 2 39 32 182 337 166 353-6 6-14 0-22-14"/><path d="m2600 2040c-21-21-19-40 4-40 18 0 49 37 41 49-9 16-23 13-45-9"/><path d="m2736 2011c-4-6-17-9-29-6-26 6-87-28-87-49 0-27 21-28 49-2 17 17 33 24 47 20 25-7 53 21 37 37-8 8-13 7-17 0"/><path d="m2782 1963c-56-27-72-47-54-65 8-8 20-3 42 16 17 14 38 26 45 26 18 0 47 29 40 41-8 12-13 11-73-18"/><path d="m5806 4059c-125-62-162-64-262-14-73 37-90 41-114 25-24-15 3-34 112-74 108-40 147-44 204-20 51 21 194 113 194 125 0 18-37 7-134-42"/><path d="m5875 3947c-4-10-5-42-3-72 4-43 13-67 42-110 31-44 37-60 31-85-6-27-4-30 19-30 23 0 26 4 26 33 0 20-12 49-34 80-26 36-36 63-41 107-4 32-13 67-20 77-13 17-14 17-20 0"/><path d="m5757 3554c-4-4-7-26-7-49 0-100-72-265-178-411-53-74-62-94-39-94 60 0 237 335 254 480 5 44-14 90-30 74"/><path d="m5560 2455c0-23 106-254 138-300 27-39 62-58 62-34 0 7-20 44-44 83-24 39-66 115-92 169-46 93-64 115-64 82"/><path d="m6140 2017c0-19 21-37 42-37 22 0 23 13 2 34-19 19-44 21-44 3"/><path d="m6030 1977c0-24 4-27 33-27 21 0 41-8 52-20 23-25 45-26 45-1 0 26-37 51-75 51-17 0-36 5-43 12-9 9-12 6-12-15"/><path d="m5930 1945c0-8 19-23 43-34 23-11 50-26 59-33 21-15 36-3 22 20-11 17-89 61-111 62-7 0-13-7-13-15"/></g></svg>