<svg xmlns="http://www.w3.org/2000/svg" width="855" height="1200" viewBox="0 0 684.000000 960.000000"><g transform="matrix(.1 0 0-.1 0 960)"><path d="m5534 9146c-81-19-113-36-158-86-118-131-182-294-195-495l-6-100-125-17c-348-48-431-55-484-41-35 10-78 12-136 8-78-6-92-4-150 19-53 22-65 24-72 12-5-8-33-16-71-20-79-9-163-46-178-80-7-16-22-26-43-30-138-25-673-80-979-102l-98-6-36 42-37 43-125-6c-138-6-232-26-355-77-69-29-76-34-82-65-6-33-8-34-63-40-153-18-376-47-422-55-82-16-89-14-89 19 0 73-61 270-109 355-70 121-155 187-269 205-125 20-226-13-307-101-99-107-169-282-195-490l-12-96-172-23c-94-12-180-26-192-30-12-4-29-27-41-56l-20-49 33-38 34-39 162 17c227 23 204 29 212-55 22-218 140-451 259-508 110-53 282-48 365 12 132 95 220 295 255 577l13 104 219 22c121 12 243 26 271 31l51 10 49-61 49-61v-170c-1-132-6-198-24-295-21-119-22-139-15-429l7-304 50-101c46-95 51-112 77-281 16-99 41-236 55-305 31-144 44-168 179-325l86-100v-71c0-56 5-81 25-118 14-25 29-76 35-111 17-108 58-221 104-288 24-35 70-109 102-166 41-73 76-119 116-156l58-52v-94c0-52 7-141 15-199 13-90 18-108 40-125 31-26 32-33 3-28-20 3-35-13-100-112-73-108-78-119-78-168 0-29 9-90 20-137 31-133 27-247-15-445-20-92-38-202-41-244-6-70-10-82-55-149-27-41-49-85-49-99 0-32 82-131 116-139 14-4 33 0 47 8l22 15-1-246v-246l-36-120c-43-143-44-147-63-345-14-140-21-172-74-335-108-331-112-401-39-700l43-175h33c28 0 33 3 27 18-21 55-78 281-90 361-16 103-10 180 25 318 24 93 102 289 114 286 5-1 27-58 49-127 33-100 45-126 64-135 51-23 53-15 17 84-61 172-95 320-101 441l-6 111 58 169 58 169-7 145c-3 80-9 174-13 209-7 76-18 76 137 4l105-48 110 1c80 0 134 7 198 23 49 13 91 20 94 17 11-11-28-229-57-316-30-93-81-200-124-263-15-21-35-68-45-105-41-147-142-422-188-512-88-174-131-356-117-498 6-60 7-62 25-46 28 25 38 67 48 200 7 103 14 133 45 209 20 49 40 93 45 98 11 11 25-236 16-294-9-60-20-97-66-215-21-55-43-134-49-175-6-41-12-86-15-101-4-27-3-28 39-28h43l11 98c8 72 21 125 54 207l42 110 7 285c4 157 12 305 18 330 27 103 135 399 168 460 70 126 94 179 112 252 20 77 41 227 41 291 0 30 9 49 42 88 22 27 44 49 47 49 4 0 22-30 40-67 18-37 61-112 95-167 88-141 85-133 97-258 9-105 14-121 60-217 46-97 49-106 38-143-26-97-41-214-46-360l-6-158 86-177c106-221 122-283 114-456-3-67-8-132-12-144-7-21-4-23 30-23h37l-4 228-3 227-62 130c-58 120-64 140-83 265-12 74-21 178-21 230 0 94 17 180 36 183 5 1 14-25 20-58l11-60 27 58 26 58-59 133c-62 137-80 203-80 287 0 67-29 139-111 270-74 119-140 196-199 231-19 12-36 22-38 23-1 1 2 14 7 29 14 35 39 33 115-9 58-32 70-35 146-35 45 0 109 7 143 16 78 20 196 80 275 139 35 26 65 46 67 44 3-4 25-371 25-429 0-28-2-31-22-25-13 4-27 8-32 9-4 0-21-36-36-82-33-98-70-152-106-152-34 0-95 64-130 136-36 75-44 50-15-46 23-75 68-136 107-146 45-11 109 31 157 104 24 37 49 76 55 87 9 16 13 8 33-55 28-90 29-153 5-280-10-53-20-168-23-260-4-140-2-184 16-289 16-97 21-166 21-320 0-213 11-371 36-496 13-64 22-87 47-113 27-28 37-32 81-32h51l-46 43c-39 36-48 52-62 109-27 107-37 235-37 483 0 177-5 260-20 363-25 165-26 371-4 497 29 168 29 191-5 293-29 87-31 101-31 245 0 138-12 296-26 354-5 19 1 26 40 45 44 21 46 24 46 66 0 38-6 51-40 88-21 23-41 53-44 66-30 149-58 241-119 393l-73 180 23 60c24 66 30 172 12 208-7 12-25 38-42 56-55 63-68 110-78 270l-9 146 30 56c42 79 58 151 75 334 21 224 24 240 56 334 35 102 49 211 49 389 0 103 4 140 16 165 9 18 73 119 141 225 142 220 204 332 228 412 8 30 27 125 40 211 15 98 43 217 75 324 61 204 64 255 21 353-20 46-36 110-49 201-31 205-54 246-251 441-192 190-216 222-216 299v56l75 12c72 13 433 53 468 53 15 0 17-12 18-83 1-198 127-443 260-507 34-17 70-23 147-27 143-7 176 3 253 82 115 118 179 284 207 543l12 113 95 5c179 9 360 37 360 57 0 7-10 45-22 86l-22 73-50-7c-181-24-362-43-367-37-3 4-11 41-18 84-37 231-148 422-278 480-59 26-150 32-229 14m229-85c95-70 180-210 223-367 21-79 30-333 15-459-22-189-102-366-212-472l-44-42-34 28-35 28 39 34c43 38 71 95 109 220 54 178 69 394 41 582-26 173-58 258-149 402-64 101-71 127-28 100 15-10 49-34 75-54m-111-9c3-48 12-71 51-133 89-144 122-282 121-519 0-135-4-181-22-252-32-131-55-189-110-280-28-46-58-99-67-119l-17-36-55 9c-70 11-107 30-161 82-55 52-103 139-135 241-24 79-53 223-45 230 2 2 73 13 157 24 97 12 157 25 162 33 11 17 11 139 0 157-10 15-72 11-240-15-52-8-95-13-97-11-2 1 16 81 40 177 49 199 85 283 158 365 70 77 91 87 244 104 7 0 13-22 16-57m-4356-487c107-64 203-191 248-330 23-74 46-243 46-344 0-321-118-605-286-687-30-15-57-24-60-21-7 6 37 88 81 150 44 62 71 137 100 277 72 345 23 649-145 903-32 48-55 87-51 87 4 0 34-16 67-35m-92 19c11-4 16-19 16-50 0-35 9-57 45-111 56-83 99-192 120-308 14-71 16-125 12-255-6-201-30-320-85-434-47-97-149-236-172-236-84 0-204 97-258 210-35 75-106 316-98 336 3 8 18 14 33 14 15 0 91 11 168 24l140 23-3 58c-5 80-24 131-48 127-216-28-309-40-312-38-5 6 60 251 87 326 51 139 128 243 209 285 27 13 70 25 124 34 3 1 13-2 22-5m5256-59c14-15 20-29 14-34-17-16-398-70-410-58-3 3-2 26 1 51l7 46 67 1c36 1 93 5 126 9 128 15 169 12 195-15m-966-114l28-30-33-5c-194-33-582-82-731-92l-108-7v35 34l128 17c70 9 244 28 387 42 143 15 262 28 264 31 12 12 40 1 65-25m-1130-31c77-12 154-26 169-32 49-19 60-57 53-182l-7-111 32-50c17-27 68-83 113-125 124-115 173-169 212-235 65-108 111-280 129-477 7-78 7-78 36-78 16 0 29-4 29-10 0-5-8-10-19-10-15 0-19-10-24-67-3-38-26-132-51-212-43-134-46-152-46-251 0-59-5-132-10-161-20-106-116-278-253-453-43-55-88-119-100-141-34-67-56-199-67-405-6-107-14-213-18-235-8-42-20-47-71-31-22 8-23 6-17-15 18-62 28-160 22-212l-8-58-31 6c-62 13-67 16-67 43 0 15-3 44-6 65l-7 37h-59c-54 0-64-4-104-36l-44-36-30 67c-36 79-36 85-10 118 11 14 20 28 20 31 0 3-27 6-60 6-33 0-60-2-60-4 0-2 16-37 35-78 20-41 38-98 42-126 3-29 8-52 11-52 3 0 43 11 89 25 91 28 99 27 147-24 21-22 32-48 41-93 10-56 14-63 33-60 26 4 25 10 12-98-13-104-25-146-56-186-22-30-79-62-90-51-4 3-2 31 3 61 6 31 7 56 4 56-4 0-24-17-44-38-36-36-37-39-20-54 10-9 48-32 85-53l67-36 3-95c2-56-1-99-7-104-5-4-50-24-100-43-116-46-276-76-441-84l-131-6-6 33c-4 18-7 44-7 58 0 14-12 74-26 134l-26 108h-42c-24 0-45-2-48-5-2-3 26-65 63-137 38-73 68-136 69-140 0-11-144-10-220 2-72 12-185 61-194 86-7 19-22 149-36 324-12 147-16 154-119 223-39 26-71 54-71 61 0 7-35 85-78 173-44 88-87 191-96 229-10 38-22 76-27 84-41 66-50 100-80 308-11 82-12 83-56 115-47 33-97 96-131 162-34 68-59 164-91 350-34 196-36 207-76 310-72 187-106 467-87 701 7 77 21 191 32 254 11 65 20 161 20 220 0 103 1 107 30 140 16 19 29 38 30 41 0 4-17 10-37 14-68 12-73 19-73 91 0 58-2 65-17 60-10-3-72-10-138-16-66-6-207-22-313-36-107-13-198-22-203-19-5 4-9 22-9 41 0 34 1 34 44 34 24 0 122 12 218 26 123 18 201 25 270 22l97-4 11 56c6 30 14 63 16 72 6 21 78 54 159 73 73 18 233 19 286 3 34-10 40-17 50-52 16-64 18-68 33-63 8 3 133 19 278 36 709 83 964 111 995 111 40 0 40 6 8 70-14 27-25 52-25 55 0 12 162 4 294-15m-3283-489c13-11 21-22 17-26-12-12-80-24-319-55-129-17-249-35-266-39-38-11-38-10-48 45l-6 42 88 6c132 10 387 37 392 42 2 2 30 4 62 4 41 0 63-5 80-19m2276-3897c59-24 96-34 136-34 29 0 121-12 203-26 197-34 259-30 469 31 88 26 168 49 178 52 20 6 63-30 108-91 36-48 39-117 9-223l-20-71 54-119c67-148 101-250 120-359 15-83 46-155 80-184 24-19 20-26-38-54-29-14-82-48-118-75-140-106-239-151-332-151-28 0-98 11-156 25-58 14-115 25-127 25-28 0-28 4-3 45 23 38 90 75 185 103 67 20 72 24 102 74 44 72 94 218 75 218-13 0-91-109-123-172-19-38-35-58-47-58-60 0-227-62-237-88-4-10-11-55-16-101-14-124-28-147-115-187-101-47-193-67-284-62-61 4-97 14-193 54l-119 49 4 90c2 67 0 90-9 89-7-1-24-2-37-2-19-2-29-14-52-69-15-38-30-70-32-73-5-7-61 62-62 76 0 6 11 31 24 55 32 59 51 123 76 254 12 61 33 146 47 190 23 70 26 97 26 215 0 95-5 156-17 205-30 121-31 176-5 255l23 70h38c35 0 38 2 38 29 0 50 19 49 147-5"/><path d="m3925 8180c-167-18-512-57-795-90-91-10-186-17-212-13l-47 6-16-40c-9-22-56-92-105-154l-89-114-1-60c0-71 23-217 46-295 9-30 35-100 57-155 41-98 42-103 40-208-2-179-31-247-103-247-20 0-29-6-33-21-4-16-11-19-26-14-22 7-130-10-143-23-4-4 46-7 112-7 105 0 122-2 147-21 39-29 41-87 9-218-14-56-26-111-26-121 0-11 27-81 61-155 93-209 117-324 84-415-8-22-15-41-15-41 0-4 83-55 85-52 2 2-4 36-14 76-11 40-15 72-10 72 5 0 37-14 70-31 34-17 63-28 66-26 2 3-31 44-74 91l-79 86-12 87c-18 122-39 200-69 253-19 35-27 66-32 133l-6 89 53-7 53-7-35 46c-19 26-39 61-44 80-10 34-2 155 16 261 32 182 25 257-38 400-54 124-71 193-76 315l-5 105 114 130 113 130 115 13c63 7 275 33 471 58 197 24 367 44 378 44 15 0 20-7 20-24 0-43 47-84 155-136 95-46 107-54 163-124 77-96 113-172 159-336 21-73 39-127 41-122 2 6-6 82-18 169-23 175-42 228-121 339-90 127-107 140-218 171-56 15-101 31-101 35 0 5 27 27 59 51 59 41 74 58 49 56-7-1-85-10-173-19"/><path d="m4340 8135c0-25-2-26-46-24-45 3-47 2-66-35-11-21-18-39-16-41 2-2 28 12 60 30 65 38 54 44 130-66 66-93 153-167 174-146 6 6-214 300-227 305-5 2-9-8-9-23"/><path d="m3613 7375c-159-43-260-150-283-301-8-52-7-101 3-199 15-140 29-180 90-252l34-42-5-120c-3-80-1-121 6-121 16 0 21 22 28 130 4 60 11 99 17 97 5-1 37-48 70-102 75-127 87-140 172-180 87-41 138-52 289-65 66-6 121-12 124-14 2-2-43-37-99-77-56-39-120-90-141-111-43-43-77-108-78-147 0-21 10-14 70 51 76 83 159 152 284 238 76 52 83 60 136 157 30 56 57 102 60 103 3 0 2-116-1-257-4-205-9-271-23-323-10-36-19-88-20-115-1-49 4-60 48-120 8-11-16-203-40-322-8-40 13-25 34 25 41 97 57 243 35 337-9 39-9 74 3 164 8 62 21 125 28 140 8 14 21 71 31 126 9 54 23 111 30 126 18 33 72 81 112 98 34 14 43 34 43 101 0 69 25 158 68 247 31 64 43 105 56 195 28 186 37 202 139 265 31 20 57 39 57 43 0 4-16 15-35 26l-35 18-55-54c-77-76-102-132-114-255-12-119-24-166-98-392-51-156-58-173-79-173-39 0-55-11-100-73-43-60-44-61-44-29 0 17 9 96 20 174 14 99 20 182 18 268-3 144 3 164 96 280 73 90 71 87 37 116-21 18-36 43-47 82-29 107-34 101-27-32 6-126 6-128-14-122-18 6-22 1-28-31-4-20-24-82-44-138-47-123-63-191-65-265-2-55-4-60-56-117-30-33-73-90-94-126-21-37-43-70-48-73-22-14-18 41 15 184 63 272 67 369 27 532-10 41-24 104-30 140-21 120-83 221-159 260-20 10-63 23-96 29-81 15-259 13-322-4m395-85c76-63 95-89 121-173 75-243 74-529-2-739-21-58-25-62-72-80l-51-19-129 45c-171 61-192 76-243 173-35 69-51 87-131 150-72 58-89 76-83 90 5 10 16 35 26 56 26 58 19 73-32 69l-43-3 6 78c4 43 16 109 27 147 17 60 28 78 81 131 91 90 184 121 374 124l92 1 59-50"/><path d="m2888 6505l-27-23 34-64c44-83 102-232 126-327 10-41 21-76 24-79 2-2 7 19 11 47 4 28 10 51 14 51 4 0 18-9 32-19l25-20 21 45c13 25 20 49 17 53-2 5-34 21-70 36-36 16-65 33-65 39 0 11-104 273-111 280-2 3-16-6-31-19"/><path d="m3325 6235c-27-14-72-34-100-45l-50-21 30-25c17-13 34-24 38-24 5 0 42 12 83 26l74 27v43c0 51-5 52-75 19"/><path d="m3933 6193c-18-3-23-11-23-33 0-16-3-35-6-44-11-28 23-18 50 15 27 32 35 70 14 68-7-1-23-4-35-6"/><path d="m4577 6068c-44-77-118-230-113-235 2-3 20 0 39 6 30 10 39 21 66 84 62 144 68 247 8 145"/><path d="m3300 6020c0-29 85-62 283-110 115-27 213-50 218-50 17 0-41 68-75 89-20 12-91 28-201 45-93 15-182 29-197 31-16 2-28 0-28-5"/><path d="m3860 5761c0-16 14-60 31-98 38-83 53-168 44-250l-6-62-77-42-77-43-125 2-125 2 33-29c45-39 61-41 183-20 109 18 154 32 179 53 9 8 53 16 105 19 50 3 110 12 135 21 54 20 134 66 126 73-2 3-40-6-83-20-104-34-129-38-157-31-22 5-26 13-31 62-11 88-35 189-68 282-34 97-42 110-68 110-14 0-19-7-19-29"/><path d="m2955 5576c8-57 42-155 95-276 21-47 41-94 46-105 16-38 16 83 0 162-18 86-73 197-118 239l-30 29 7-49"/><path d="m3150 5517c0-14 94-205 119-240 32-47 92-109 134-139 26-19 27-19 27-1 0 22-44 94-115 189-27 37-70 94-95 127-38 52-70 81-70 64"/><path d="m3806 5089c-19-15-26-30-26-55 0-29 3-34 24-34 28 0 44 17 52 57 9 44-15 59-50 32"/><path d="m3374 4960c-11-4-54-13-96-20-54-9-78-17-82-29-3-9-8-21-11-27-3-6 8-17 25-24 26-11 45-10 119 5 88 18 88 18 123-3 45-28 118-54 118-42 0 25-141 151-166 149-5 0-18-4-30-9"/><path d="m3818 4818c-48-51-85-94-83-96 2-2 43 19 92 47 48 28 111 55 140 61 55 12 89 40 80 65-5 11-22 15-74 15h-68l-87-92"/><path d="m4086 4820c9-37 6-252-5-360-5-57-9-65-28-68-12-2-47 9-78 24-47 22-61 24-81 15-13-6-24-15-24-19 0-8 62-28 143-46 19-5 27-13 28-29 0-12 4-31 9-42 6-17 13-8 43 54 48 99 71 204 64 295-6 76-38 176-64 197-14 12-15 10-7-21"/><path d="m3325 4754c-27-23-36-25-92-20-66 6-71 3-48-28 11-15 33-20 107-26 79-6 107-13 183-48 49-23 91-39 94-37 7 7-20 35-108 112-46 40-88 73-95 73-6-1-24-12-41-26"/><path d="m3370 4533c0-4 12-31 27-60l28-52 62-7c34-3 67-4 74-2 7 2-18 25-54 52-68 47-137 83-137 69"/><path d="m3650 4432c0-5 32-40 71-76 69-66 152-117 166-103 4 4-15 30-42 57-48 48-48 50-30 69 21 24 21 24-74 41-34 6-69 14-77 17-8 3-14 1-14-5"/><path d="m4292 3923c-46-19-133-46-195-61-97-23-134-26-277-27-164 0-166 0-317 43-84 23-159 45-166 48-17 6-70-115-94-216-16-68-16-70 3-85 10-8 22-15 26-15 4 0 12 26 18 58 11 49 56 190 65 200 3 3 180-64 197-74 8-5-11-38-52-93-32-42-146-128-233-176-37-20-65-41-61-46 20-34 189 34 276 111 50 44 102 119 112 164 6 23 11 27 29 22 12-3 69-9 127-12 117-7 254 6 373 37 138 35 183 56 223 105 20 24 35 46 33 48-2 1-41-13-87-31"/><path d="m4221 3667c-35-18-37-35-4-48 35-13 101-6 121 14 13 13 12 16-4 25-35 17-88 22-113 9"/><path d="m4040 3640c-186-36-246-52-317-87-70-34-120-73-94-73 7 0 101 22 209 49 109 27 221 52 250 56 44 6 55 11 67 35 25 48 28 47-115 20"/><path d="m4270 3585c-47-13-114-36-150-50-74-31-318-152-337-167-7-6-13-30-13-54 0-24-1-44-2-45-2-1-55-6-118-13-64-6-115-15-114-21 1-5 28-16 60-23 52-12 74-11 194 7 74 11 189 23 255 26 154 8 228 21 290 51 49 23 114 79 103 89-2 3-31-4-64-15-116-40-374-80-517-80h-50l24 26c39 42 128 91 264 144 144 58 229 98 265 129 32 26 17 26-90-4"/><path d="m3400 2055c-36-13-88-27-116-31-50-6-52-7-58-43-8-52-7-124 3-140 11-17 17-6 25 44 4 22 11 46 15 53 4 7 48 22 97 34l88 21 43-48c50-55 54-43 18 47-14 34-25 67-25 75 0 17-13 16-90-12"/><path d="m3300 1665c0-53 1-53 96-23l69 21-75 24c-41 12-78 23-82 23-5 0-8-20-8-45"/></g></svg>