<svg xmlns="http://www.w3.org/2000/svg" width="796.25" height="1200" viewBox="0 0 637.000000 960.000000"><g transform="matrix(.1 0 0-.1 0 960)"><path d="m2405 9149c-125-26-239-110-290-213-36-74-57-207-53-330 3-95 6-107 46-193l43-92-37-148-37-148-71-69c-48-46-94-79-143-103-48-23-83-47-104-74-34-44-78-141-79-175 0-11-11-43-25-70-67-130-77-266-31-404 24-71 30-109 36-235 6-124 13-172 41-275 33-124 33-127 34-345 0-252-24-463-57-501-10-11-18-26-18-32 0-32-46-145-90-222-61-106-90-206-97-338-7-123 12-348 38-452 34-131 69-395 75-563 7-163 15-197 49-197 6 0 20-35 30-77 45-194 106-384 154-482 28-57 51-116 51-130-1-88-83-381-143-512-54-117-71-168-97-291-40-200-37-303 15-470 37-118 55-263 57-478l3-195-43-177c-23-98-42-201-42-230 1-129 94-218 229-220 102-1 210 47 390 175 40 29 119 46 215 47 32 0 37-3 31-17-3-10-11-52-17-95-14-97 0-191 39-267 37-72 98-106 188-106 54 0 74 7 198 68 138 68 138 68 254 78 173 14 212 27 317 107 32 25 99 63 150 85 50 22 98 46 107 54 21 18 30 65 34 177 4 81 1 95-22 140-14 28-29 58-33 66-3 8-23 23-42 33-36 18-38 17-135-8-171-45-347-44-328 3 4 9 10 41 13 70 2 28 8 52 13 52 37 0 747 144 757 154 17 17 5 46-20 46-10 0-182-31-381-70-199-38-365-70-369-70-4 0-10 17-13 38-16 94-35 141-64 158-55 33-49 110 33 421 65 245 69 284 60 598-9 341-10 326 21 422 30 96 34 242 9 355-20 85-20 68-3 277 9 129 10 184 0 260-6 53-14 112-16 132-4 33-2 36 41 57 24 12 47 28 50 36 9 23-103 389-174 566-61 153-66 172-73 270-4 58-8 164-9 235 0 105-5 140-21 185-12 30-25 84-29 120-4 36-11 81-15 101-4 22 0 71 13 135 11 54 23 115 26 135 3 19 32 75 63 124 31 49 72 123 92 165l36 75 1 165 1 165 42 80c26 49 41 88 38 102-4 24 7 31 18 12 14-21 158-121 208-144 75-34 202-65 267-65 74 0 139-20 192-59 39-29 47-31 130-31 131 0 188 32 188 105 0 26 11 41 65 89 79 70 109 113 162 236 43 98 64 169 83 280 13 75 101 386 126 445 9 22 41 63 71 90l55 50 13 90c11 76 11 105-1 185-31 203-34 227-34 295-1 39-9 92-18 120-14 41-22 51-49 58-26 8-33 16-42 53-9 34-20 50-51 70-23 15-48 24-59 21-13-3-21 1-24 14-4 14-14 19-40 19-47 0-76-26-84-75-3-22-14-46-24-53-27-19-42-78-36-142 8-69-1-130-19-130-7 0-19-7-28-15-12-12-14-41-11-153 2-123 6-148 35-237 48-150 43-176-55-323-57-84-112-150-195-232-65-63-125-130-134-147-9-18-19-33-22-33-4 0-27 16-53 35-59 42-188 105-218 105-38 0-33 15 23 71 31 30 112 117 179 195 152 173 179 197 247 219 113 37 124 50 152 175 13 58 16 97 10 173-5 81-3 114 12 174 21 86 15 106-35 111-17 2-31 6-31 9 0 3 12 42 26 88 22 71 24 88 14 123-13 50-42 72-92 72-32 0-50-10-116-66-100-86-128-117-161-184-65-129-73-166-65-345l7-162-67-47c-36-27-101-63-144-81-42-18-135-60-207-94l-129-62-41 17c-22 9-85 24-140 34-70 13-129 31-195 62-127 58-222 118-212 132 5 6 17 34 27 61 29 81 35 85 126 78l78-6 34 34 35 35 7 139c14 252-13 510-62 595-49 87-101 145-154 177-114 68-331 107-454 82m261-60c113-35 211-87 248-133 88-108 107-202 110-535 2-235 2-244-18-263-19-18-30-19-98-13l-78 6-29-32c-17-18-44-60-62-93-18-34-33-62-33-63-1-1-21 3-44 9-54 14-64 32-71 136-3 45-10 83-16 85-14 3-19-140-6-184 15-49 37-66 113-87 39-11 95-38 139-68 41-27 104-62 141-77 42-18 68-35 71-48 5-18 11-19 74-13 184 17 359-94 433-273 51-126 71-163 91-174 23-12 39-4 39 18 0 12 7 14 37 8 73-13 140-46 198-96 93-80 195-119 195-75 0 7-11 19-25 26-17 9-24 19-20 29 19 51 78 125 151 189 78 68 202 228 258 331 28 53 18 181-23 287-25 65-31 95-31 155 0 41-4 92-9 114-6 22-6 44-2 48 18 18 39-26 50-105 17-115 20-128 31-128 13 0 13 29-4 130-15 94-11 346 6 368 25 30 29 4 26-160-2-125 1-179 10-196 18-32 31-19 23 25-9 45-5 429 4 443 3 6 15 10 25 10 34 0 45-67 42-260-2-173 2-230 17-230 14 0 19 372 6 426-3 15 1 24 12 28 49 19 85-108 70-253-10-99-1-211 16-211 9 0 13 47 15 163 2 89 7 166 12 170 11 12 47-9 55-32 3-11 8-71 10-133 3-62 11-164 20-227 28-210 18-264-60-349-85-92-112-164-196-507-76-316-106-380-243-530-42-46-71-87-75-107-10-47-50-71-124-76-66-3-80 2-194 73-43 27-57 30-128 31-44 0-102 7-130 16-27 9-75 23-106 32-31 9-74 30-95 46-22 16-64 47-94 69-67 47-75 57-128 147-23 40-56 84-73 98-28 24-39 27-97 24-48-2-68-7-76-20-17-28 8-47 32-25 10 9 28 17 39 17 19 0 94-48 106-68 11-16-106-131-141-138-44-9-123 13-147 41-26 31-63 42-71 21-14-36 135-120 211-120 66 0 114 26 122 64 7 36 29 58 44 43 16-16-14-122-58-206-46-87-111-152-197-196-79-40-96-61-96-116 0-56-15-103-50-158-30-48-32-71-5-61 20 8 105 179 105 211 0 40 16 58 91 103 125 74 172 128 225 258 13 32 24 48 24 37 0-11-15-49-32-85-32-63-32-68-34-210-2-175-12-207-113-383-72-125-86-166-112-330-7-49-16-76-23-73-6 2-63 16-126 31-63 15-121 29-129 31-9 3-11 12-7 29 4 14 11 79 16 145 7 95 13 127 32 159 23 40 21 58-5 48-39-15-85-181-72-259 7-38-9-108-25-108-4 0-52 9-105 20-78 16-136 20-297 20h-200l6 31c7 38 24 185 30 269 2 36 10 124 17 195 11 122 10 143-16 355-23 193-27 249-22 395 6 216 30 314 121 502 73 150 90 212 84 306-6 94-28 113-28 25 0-82-26-167-97-321-45-96-61-146-83-256-54-267-57-371-16-678 26-189 28-226 17-313-6-47-15-152-21-234-5-81-15-176-21-211l-12-62-116-6c-64-2-117-4-118-3-2 2 4 50 13 107 9 59 18 205 21 335l5 231-35 124c-48 170-47 163-48 306-1 118-3 136-36 232-31 95-34 112-28 175 5 50 18 96 45 156 21 47 43 110 50 140 24 106 66 160 150 195 25 10 61 35 80 54 20 20 59 54 88 76 49 37 55 46 77 120 13 44 34 122 45 173l20 94-41 91c-50 109-56 161-39 309 14 124 40 187 107 259 56 60 103 86 187 104 91 20 174 18 252-6m1554-404c0-14-21-78-46-143-34-87-47-136-51-191-5-61-4-73 8-69 10 3 16 29 20 84 5 58 16 102 42 164 20 47 41 104 47 127 13 52 24 60 44 31 23-32 20-55-20-175-33-98-37-119-38-227-1-88 2-120 12-123 9-4 11 11 6 64-7 74 8 172 29 185 18 12 57 10 57-3 0-6-7-36-16-67-12-41-15-74-10-126 4-39 8-80 8-91 1-17-13-83-40-185-7-23-53-52-152-94-14-6-128-113-254-238-127-125-231-227-232-225-1 1-20 39-43 85-29 58-62 103-111 153-54 56-65 71-52 76 60 21 379 177 419 204 57 40 133 108 133 120 0 5-8 9-18 9-17 0-20 13-26 133-5 116-4 141 14 206 12 41 28 86 36 100l15 26-7-30c-19-83-23-115-24-167 0-88 16-69 23 25 8 109 58 250 101 286 22 18 21 16-19-76-32-75-35-89-35-183 0-55 4-99 9-96 4 3 11 49 13 103 5 87 10 108 47 193 48 107 80 160 99 160 6 0 12-11 12-25m-1734-2929c27-8 83-19 124-25 130-18 301-59 319-75 13-12 20-38 25-88 5-52 14-85 34-118l27-45 5-265 5-265 66-141c75-159 84-185 137-381l38-141-120-60c-253-126-416-172-612-172h-131l-6 73c-8 97-59 307-86 350-12 20-60 62-110 95-48 34-103 80-123 104-62 76-96 108-112 108-26 0-19-53 13-96 39-53 132-140 160-149 21-6 15-11-45-35-85-34-98-60-29-60 25 0 62 7 82 15 90 38 141-41 157-243l6-73-44-19c-48-22-241-40-424-40-117 0-168 15-176 52-8 36-26 220-36 358-5 69-12 135-16 148-5 18-2 22 14 22 34 0 35 17 2 65-17 25-40 66-52 91-27 63-48 232-48 402v143l41 104c27 68 54 119 79 148 31 35 40 54 45 98 10 85 22 106 63 117 21 6 181 10 358 11 251 1 331-2 370-13m711-1886c4-154 1-203-15-293-18-102-18-109-2-130 33-43 43-95 37-206-4-84-10-120-32-176-34-85-37-158-16-410 16-197 10-250-59-549-65-286-73-339-67-457l5-106-26-20c-55-39-167-69-295-79l-87-7v79c0 76-14 236-26 300-5 29-4 31 19 27 42-8 40 14-7 72-75 91-100 211-86 400 10 130 33 212 115 410l38 89-12 106c-6 58-11 173-11 256 0 176-8 211-82 359-28 55-70 159-94 230l-42 130 106 6c59 3 107 5 108 5 0-1 13-27 28-59 16-32 46-79 68-104 37-43 58-79 72-125 3-10 10-18 16-18 39 0 7 87-87 237l-52 83 27 6c67 14 251 81 339 124 95 45 98 46 106 26 5-12 11-104 14-206m-837 81c0-20 6-32 18-36 49-15 56-276 15-495-11-57-16-130-15-225 2-134-11-245-30-245-4 0-8 7-8 15 0 19-14 19-29 1-8-9-10-35-5-77 10-100-23-594-52-764-8-49-33-146-56-215-37-115-41-134-42-240-1-137 15-214 51-237 13-9 79-32 146-53l122-36 5-88c5-80 8-90 32-111 15-13 32-25 39-27 10-3 7-18-10-60l-22-56-52-6c-29-3-81-9-117-12-72-7-99-20-257-125-112-74-150-89-233-89-64 0-145 40-175 86-25 39-15 139 29 281 52 166 57 209 51 388-3 88-8 214-10 280-3 101-8 130-31 185-38 94-54 181-54 303 0 177 34 307 140 535 54 115 66 154 91 279 16 81 29 158 29 172 0 13-32 106-71 205-58 146-138 412-139 461 0 6 73 10 200 10h200l5-26c7-29 3-50-27-152-21-69-19-97 5-97 18 0 32 33 56 138 14 60 17 91 10 108-5 14-9 29-9 34 0 9 48 15 148 18 51 2 52 2 52-27m150-366c18-49 49-130 70-179l39-91 6-200c12-361 16-316-42-442-76-162-94-233-100-393-5-139 5-207 52-340 19-53 45-241 45-323 0-55-2-59-45-100-37-36-45-50-45-80 0-20-1-37-2-37-2 0-55 18-117 39-105 34-116 40-123 67-38 138-26 306 36 500 54 170 66 265 73 584 5 233 5 236 36 320 31 83 32 88 29 242-1 110 3 177 13 221 11 49 34 248 35 301 0 19 10-3 40-89m625-2078c8-28 15-85 15-128v-77l-47-31c-123-82-482-142-544-92-23 18-24 25-24 138 0 110 2 121 25 153 20 28 25 31 28 17 2-10-2-25-9-33-10-12-8-19 10-37 20-20 31-22 139-21 99 1 129 5 195 27 125 43 183 87 175 132-9 45 21 7 37-48m529-306c11-12 15-27 11-43-5-20-1-29 20-42 21-14 25-22 19-39-4-12-8-49-10-82-5-116-7-121-87-152-39-15-97-47-129-70-31-23-89-58-127-78-62-31-86-36-211-50-180-19-208-27-299-85-136-86-192-89-266-15-50 49-75 117-75 199 0 65 31 194 64 269 14 32 26 66 26 76 0 16 12 19 113 24 115 6 253 37 344 77 40 18 47 18 73 5 83-43 313-43 424 0 75 29 88 30 110 6"/><path d="m2586 8415c-10-27 13-148 32-167 17-18 169-67 206-68 38 0-5 29-90 61-45 18-86 39-90 48-3 9-9 43-13 76-4 44-10 61-22 63-9 2-19-4-23-13"/><path d="m1747 7567c-12-32 15-89 63-135l48-45-19-55c-24-69-25-140-3-149 25-9 35 10 22 44-10 28-8 40 16 101 17 43 26 77 22 90-4 11-27 33-51 49-26 16-54 45-68 71-17 31-26 39-30 29"/><path d="m2933 7521c-46-60-55-64-193-96-127-28-201-62-218-100-7-15-12-72-12-139 0-131 2-127-134-275-115-125-156-193-156-258 0-47 33-19 74 63 27 53 66 107 112 157 132 141 164 209 164 348 0 32 4 69 9 82 14 37 67 64 171 87 52 11 110 28 129 38 46 22 111 87 111 111 0 37-18 31-57-18"/><path d="m3076 7455c-9-14-48-41-86-60-67-34-70-37-84-87-27-99-29-117-11-124 25-10 36 8 42 72 7 69 20 87 88 121 66 33 85 51 85 80 0 30-14 29-34-2"/><path d="m4376 7259c-8-19-22-56-31-84-13-37-34-66-81-111-35-33-64-65-64-72 0-23 49-12 83 18 56 48 143 248 119 272-8 8-15 1-26-23"/><path d="m2570 7027c0-39 46-94 93-112 54-21 111-17 115 8 3 14-4 17-43 17-59 0-77 10-115 65-34 50-50 57-50 22"/><path d="m3754 6936c-12-8-27-28-33-45-15-34-58-55-101-49-37 6-50-10-25-29 36-26 124-6 138 32 9 23 68 55 102 55 50 0 116-42 129-81 8-26 16-34 35-34 41 0 35 21-21 79-52 54-76 65-168 81-23 4-42 1-56-9"/><path d="m4073 6695c-18-8-33-21-33-30 0-23 31-31 45-12 8 11 30 17 71 19 47 2 59 7 62 21 3 15-5 17-55 17-32-1-73-7-90-15"/><path d="m2197 6554c-19-20-3-58 47-113 62-68 73-100 61-194-12-97-11-150 1-154 20-7 36 58 41 169 7 123-3 160-49 184-17 9-38 34-51 61-22 46-37 60-50 47"/><path d="m1920 6488c-16-34-43-81-60-103-32-43-49-120-36-169 10-41 33-32 41 17 13 85 17 98 50 137 36 43 53 84 57 139 5 58-20 48-52-21"/><path d="m1850 5631c-56-5-65-9-65-26 0-20 6-20 235-17 227 3 240 2 390-27 211-40 257-46 275-31 42 35-20 51-405 101-71 9-327 9-430 0"/><path d="m2836 5473c-14-15-3-48 33-99 46-65 66-136 57-206-7-53-34-128-45-128-4 0-13 41-20 92-15 106-32 168-56 205-32 49-39 12-16-94 36-173 44-258 26-292-20-41-20-100 1-108 22-8 42 20 37 51-4 19 6 36 40 73 58 62 81 141 75 258-4 62-11 92-32 135-46 88-83 130-100 113"/><path d="m2891 4888c-12-33 26-194 62-258 76-138 88-167 113-295 26-133 33-153 54-140 9 5 11 25 7 66-15 136-38 213-107 354-73 149-94 215-84 264 6 27 4 31-15 31-13 0-25-9-30-22"/><path d="m2893 3395c-3-9 2-24 11-34 24-26 46-105 46-161 0-26-11-79-24-118-26-75-26-131 0-153 23-19 37 0 30 41-4 26 2 58 19 108 30 86 31 121 5 203-32 103-71 154-87 114"/><path d="m2732 2911c5-23 110-28 128-6 15 18 19 17-63 20-57 2-67-1-65-14"/><path d="m2991 2111c-6-11-11-32-11-48 0-41-54-128-117-188-54-51-62-75-25-75 29 0 62 29 99 87 39 61 83 171 83 208 0 32-16 41-29 16"/><path d="m2136 3332c-2-4 3-32 11-62 10-34 16-100 17-176 1-117 0-122-31-182-40-75-41-92-9-92 32 0 54 36 71 118 25 117 12 311-27 385-9 18-24 22-32 9"/><path d="m1910 2917c0-18 8-25 48-35 70-19 86-19 90 0 4 21-64 58-108 58-25 0-30-4-30-23"/><path d="m2105 2089c-27-39-64-84-82-100-30-26-41-29-98-29-49 0-65-3-65-14 0-32 101-36 158-7 69 35 162 150 162 201 0 37-24 20-75-51"/><path d="m1996 1344c-3-9-6-22-6-31 0-8-16-41-36-74-31-49-36-65-31-96 9-52 44-84 100-90 39-5 47-2 57 17 10 18 9 25-4 38-12 13-18 14-28 4-18-18-43-15-63 8-18 20-17 23 14 115 31 89 34 125 12 125-5 0-12-7-15-16"/><path d="m3555 1126c-16-12-17-17-8-27 16-16 67 5 60 24-6 18-30 20-52 3"/><path d="m3566 1052c-2-4-1-14 4-22 4-7 6-28 3-46-6-37 17-84 42-84 17 0 21 35 5 45-6 3-9 27-8 52 1 29-4 48-13 54-17 11-26 11-33 1"/><path d="m2790 1016c0-7-12-35-26-62-21-39-25-58-21-94 6-50 42-90 81-90 38 0 38 26 0 55-39 30-45 70-19 132 8 19 15 44 15 54 0 11-7 19-15 19-8 0-15-6-15-14"/></g></svg>