<svg xmlns="http://www.w3.org/2000/svg" width="935" height="1200" viewBox="0 0 748.000000 960.000000"><g transform="matrix(.1 0 0-.1 0 960)"><path d="m5290 9132c-17-18-31-45-35-68-3-21-10-46-14-54-7-13-176-15-1427-15h-1418l-9 42c-4 24-21 55-38 74-27 29-33 31-74 25-25-3-60-13-78-23-31-17-106-23-284-23-85 1-130-20-149-66l-16-37-701 4c-697 4-702 4-702-16 0-20 8-20 734-23l733-2-6-23c-3-12-6-35-6-52v-30l-711 3c-573 3-713 1-720-9-23-38-9-39 702-39h689l6-27c20-90 29-114 60-166 42-69 49-112 59-357 9-246 48-517 89-614 8-19 39-69 69-112 74-107 84-129 89-204 6-76 28-124 91-197 37-43 51-72 77-155 40-134 55-170 86-219 45-71 267-297 365-370 51-38 101-82 110-97 10-15 22-58 27-97 42-287 55-344 102-421 30-48 50-141 50-230 0-98 17-156 107-378 77-189 91-256 93-441 2-206-11-298-57-397-36-79-38-88-38-189 0-85-4-111-19-134-30-46-36-82-46-265-11-192-28-312-60-410-11-36-23-105-27-153-5-77-4-89 12-101 20-14 19-32-6-238-14-114-6-237 25-401 8-39 19-130 26-202 29-319 49-402 110-447 15-10 72-26 139-38 124-23 164-36 213-73 95-71 243-120 469-157 190-30 228-39 239-60 14-26 12-70-5-137-22-84-20-180 5-221 11-18 20-46 20-62 0-43 46-162 70-182 36-30 106-34 157-9 52 25 66 26 83 6 16-19 51-19 76 0 10 8 22 15 27 15 17 0 5-75-23-145-35-88-37-122-11-173 23-46 45-65 95-86 61-25 116-21 162 13 71 52 93 83 105 147 6 32 24 84 41 114 45 80 49 100 57 278l8 164 77 151c85 169 89 189 56 285-23 65-62 106-117 121-21 6-89 11-150 11-62 0-113 3-113 7 0 4 13 21 29 38 16 16 44 57 61 90l32 60-6 135c-6 111-2 173 18 350 38 322 34 421-30 709-24 108-25 116-9 127 16 12 15 22-20 146-21 73-57 187-81 254-61 173-67 218-48 328 23 134 14 197-47 327-27 59-58 136-67 170-12 44-23 67-37 73-18 8-20 17-17 85 9 225 18 272 98 476 25 65 27 79 23 185-6 219-5 228 34 300 65 119 79 188 86 432l6 217 30 31c17 17 84 74 150 125 169 131 221 186 263 274 36 77 122 320 122 343 0 8 29 42 64 77 69 68 76 84 100 221 16 93 44 179 99 310 68 160 70 181 65 505-3 160-2 335 2 391 5 90 9 106 37 150 17 27 35 66 38 87l7 38 647-2c622-1 646 0 646 18 0 17-26 18-668 21l-667 2 20 40c11 21 20 47 20 56 0 15 48 16 625 9 650-8 675-7 644 31-9 12-121 14-641 14-590 0-629 1-634 18-18 61-27 67-96 67-36 0-70 3-74 8-4 4-29 7-57 7-34 0-57 6-74 20-15 12-41 20-63 20-21 0-43 7-50 15-8 9-30 15-57 15-36 0-50-6-73-28m108-14c11-14 15-38 13-84l-1-30-62 10c-35 5-64 11-66 12-9 6 21 85 36 93 24 14 68 13 80-1m-3070-39c23-24 36-110 19-121-7-4-36-8-66-8-52 0-53 0-47 26 9 33-1 64-20 64-10 0-14-12-14-42v-43l-50-1c-45 0-50 2-50 21 0 23-32 60-43 49-3-3-1-18 5-33 13-32 11-177-3-203-13-24-57-23-84 2-18 17-27 19-49 10-36-13-48-13-72 4-16 13-19 27-19 109 0 53-3 99-8 103-4 4-14-1-23-12-14-18-15-18-4 4 17 34 55 45 111 32 40-10 53-9 83 5 34 16 109 16 167-1 9-2 33 9 54 26 44 35 86 39 113 9m3198-10c12-14 19-39 21-82 4-68-11-110-41-115-18-4-18-2 2 23 24 30 29 74 10 93-7 7-27 12-45 12-32 0-33 1-33 45 0 44 0 45 33 45 22 0 41-8 53-21m135-36c6-16 9-56 7-90-5-82-24-103-90-103h-49l20 26c17 22 21 41 21 110v84h40c35 0 42-4 51-27m117-1c23-15 32-71 21-124-17-76-50-100-115-82-21 5-21 6-1 44 14 29 18 55 15 99-2 47 0 61 12 65 26 7 55 6 68-2m-279-68c12-11 12-18 3-39-21-45-115-70-164-44-12 7-24 7-29 2-18-18 21-36 80-38 92-2 151-57 151-140 0-60 24-57 28 3 2 30-3 51-17 71-12 16-21 31-21 33 0 8 127 0 151-10 14-5 47-8 74-5l48 6-6-31c-11-53-47-118-73-132-25-14-29-47-5-42 10 2 11-7 4-40-4-24-7-179-5-346 3-346-6-429-62-565-19-45-48-115-65-156-22-52-33-98-37-150-8-110-19-135-90-211-59-62-103-135-104-169 0-8-16-64-35-125-25-79-49-133-85-188-46-69-65-87-193-180-167-120-219-170-236-228-8-29-12-102-10-238 3-222-2-248-72-377l-38-70 5-180 6-180-36-83c-62-140-96-317-96-502v-69l-53-15c-167-49-188-51-517-50-354 1-534 20-641 67-53 23-55 26-67 76-7 29-12 98-13 154-1 165-18 242-110 477-70 180-72 188-80 305-10 141-13 153-72 268-31 59-48 109-55 155-28 184-32 214-32 256 0 55-19 79-139 179-110 92-318 290-353 336-28 37-60 119-97 247-15 50-35 89-67 130-63 81-85 128-94 198-12 97-27 138-71 196-51 68-92 149-113 221-33 112-64 344-70 514-11 298-13 309-53 358-43 50-59 85-69 152l-7 49 34-28c29-25 39-28 79-23 35 4 50 1 69-14 16-13 33-18 48-14 36 9 45-2 27-36-17-34-15-100 3-106 7-3 14 14 18 44 10 69 13 80 42 113 22 26 31 30 78 30 61 0 105 16 105 38 0 10-6 12-23 7-12-4-43-10-69-12-43-4-51-2-79 26-20 20-29 39-27 53 3 22 8 23 133 29 119 5 131 4 147-14 20-22 19-33-19-150-33-104-58-132-131-148-58-12-82-24-82-40 0-5 11-9 25-9 17 0 25-6 25-17 2-85 23-229 40-275 11-30 50-104 86-164 124-203 153-276 179-436 8-53 20-109 27-124 10-22 10-28 0-32-30-10-8-32 49-48 147-41 286-180 393-391 20-40 36-74 36-77 0-2-8-2-19 1-23 6-37-13-21-32 8-9 43-14 118-17 102-3 109-4 154-36 86-59 164-139 197-202 26-49 35-59 46-50 8 6 15 21 17 32 2 15 19 25 66 41 48 15 66 26 73 44 5 14 9 78 9 144 0 65 2 119 4 119 2 0 41-38 87-85 96-99 123-110 237-102 85 6 116 25 184 112l43 56 7-48c3-26 7-82 7-124 1-81 23-129 59-129 15-1 15-2-2-15-10-8-63-22-118-31-76-14-110-25-139-46-60-43-89-118-45-118 9 0 16 12 18 32 4 42 37 64 123 84 70 16 135 35 168 49 13 6 16 4 11-9-14-37 20-11 85 68 90 106 149 148 245 170 26 6 28 5 22-17-6-27 12-50 32-38 6 4 23 52 37 106 38 147 81 229 176 329 83 88 146 128 222 142 29 5 37 3 35-7-2-7 7-15 19-17 33-5 41 39 46 253 6 225 14 260 97 435 75 159 89 219 97 405l5 150-71 33c-98 45-104 57-96 182 5 68 13 106 22 116 12 12 34 14 117 8 63-4 106-11 115-20m-293-45c-3-17-6-42-6-55v-24h-1385-1385v43c0 24-5 48-12 55-9 9 300 12 1391 12h1404l-7-31m-3092-140c-9-10-24-19-33-19-12 0-12 3-3 12 7 7 12 20 12 30 0 16 3 17 21 8 20-11 20-12 3-31m3082 5c-14-35 54-113 134-154 37-19 40-23 40-63 0-72-28-280-43-322-8-23-30-72-50-110-83-167-109-283-112-504l-1-144-52-13c-95-25-206-97-290-189-61-67-139-216-148-284-6-48-7-49-45-54-74-10-168-63-235-133l-63-65-34 15c-42 17-45 32-48 206-2 96 2 139 15 184 15 48 18 100 20 285 1 248-2 271-56 361-63 105-163 153-314 152-116 0-181-21-242-79-75-72-93-115-104-258-11-137 10-367 42-465 14-44 16-66 9-110-4-30-10-99-12-154-5-110-5-109-81-126-49-10-49-10-79 25-16 20-49 54-72 76-102 96-176 132-257 127l-46-3-68 135c-62 125-74 142-163 230-66 66-115 105-156 126-55 27-63 35-92 94-21 44-37 98-48 165-19 119-66 224-174 389-83 127-109 200-121 336-5 52-8 95-7 95 1 0 18 8 39 17 52 24 102 103 134 216 3 9 290 12 1395 12 1257 0 1391-2 1385-16m-1119-899c57-29 92-69 129-149 41-90 47-154 36-370-9-173-13-201-34-248-24-52-103-157-143-190-26-22-101-32-167-23-48 7-60 14-126 78-96 93-116 137-142 309-28 187-27 368 1 440 32 83 111 154 188 169 20 4 74 7 122 8 73 1 93-3 136-24m-759-3374c35-25 106-48 183-60 125-20 407-33 599-28 166 5 217 11 340 37 80 17 151 32 159 33 10 1 18-18 27-68 8-38 23-81 34-95 44-54 53-73 66-128 15-62 19-221 4-187-4 11-20 31-34 44-14 14-26 34-26 45 0 38-43 226-52 226-17 0-19-30-9-116 6-48 9-89 8-91-2-1-29 20-59 47-73 65-130 143-137 188-7 44-25 43-29-1-2-25 9-53 50-119 46-75 65-96 138-150 99-73 99-74 128-274 17-115 25-144 67-230 26-55 55-128 65-164 10-36 22-73 25-82 6-16-2-16-97-11-111 6-253-8-337-33-63-18-304-177-355-234-23-25-36-50-36-68-1-46-17-3-23 63-4 33-24 122-45 197-27 94-36 142-29 153 16 30-51 84-148 120-62 23-112 54-144 89-14 14-30 26-38 26-60 0 110-153 206-185 65-21 77-38 85-115 5-53-19-346-29-358-2-2-29 10-61 26-179 90-314 117-578 115l-199-1 7 66c4 37 18 103 32 147 17 53 29 120 35 200 25 342 32 412 44 435 7 14 54 70 104 125 50 55 91 105 91 111 0 21-33 26-44 7-14-26-107-123-117-123-5 0-9 25-9 56 0 44 8 73 41 142 23 48 43 89 45 91 1 2 15-6 29-17 48-38 125-53 125-24 0 4-19 17-43 29-91 44-117 80-101 141 8 27 9 27 42 3m1541-1245c12-11 21-31 21-45 0-14 14-91 31-171 44-215 48-364 15-643-21-178-25-240-20-346 7-126 6-130-18-173-76-129-148-173-269-166l-72 4-61 65c-62 66-129 181-161 274-9 28-21 99-26 159-5 60-13 123-18 140-19 64-70 195-119 305-52 114-68 178-74 282l-3 57 90 72c204 163 331 211 551 207 94-2 115-5 133-21m-887-211c15-66 28-95 49-118 16-16 29-41 29-54 0-42 31-164 60-232 15-36 50-118 78-181 43-101 50-127 56-210 4-52 12-115 17-139 7-32 6-53-2-73l-11-28-48 40c-129 108-287 171-437 173-92 2-93 2-93 27 1 59 30 181 63 260 37 91 112 315 122 367 4 22 11 30 21 26 28-10 41 16 48 97 7 88 16 143 23 136 2-2 13-43 25-91m-417 4c53-10 204-78 247-112 15-11 15-18-2-82-24-93-82-262-120-355-22-52-34-103-41-165-5-49-16-112-24-139-23-74-20-96 10-96 20 0 27 6 31 30 10 47 24 53 127 48 81-3 102-8 167-40 41-20 103-55 137-79 80-57 270-216 303-253 62-71 107-107 157-126 63-23 111-25 179-6 29 8 107 14 189 15 128 1 144 0 185-21 56-29 90-84 90-148 0-37-11-64-60-150-33-58-64-121-69-140-5-19-15-98-21-175-13-163-30-246-64-313-13-26-27-70-31-97-11-87-14-94-66-135-39-30-60-40-87-40-67 0-73 17-41 97 7 18 10 36 5 40-10 10-45-33-59-71l-10-29-19 22c-26 33-23 94 8 193 33 103 28 134-44 293-45 98-102 280-102 326 0 43-165 139-296 173-33 9-132 25-220 36-175 23-307 51-357 76-17 10-64 39-103 65-97 67-134 80-242 89-58 5-102 14-118 25-41 27-61 88-68 205-7 133-30 313-58 455-27 134-29 295-8 479l14 129 211-6c115-4 237-11 270-18m776-1095c17-36 28-68 26-71-11-11-67 77-67 106 0 17 3 31 6 31 3 0 19-30 35-66m59-568l94-54 12-61c15-70 34-125 93-261 46-104 47-140 7-140-13 0-26 7-30 15-3 8-17 20-30 26-21 10-29 8-56-15-82-68-188 3-189 128-1 22-13 63-27 93-27 58-26 81 6 216 8 34 9 56 1 77-15 44 8 40 119-24"/><path d="m1937 8984c-3-3-1-20 4-37 5-18 6-51 3-74-4-28-2-43 5-43 18 0 31 37 31 89 0 39-4 53-19 60-10 6-21 8-24 5"/><path d="m5607 8592c-41-45-52-121-31-219 9-47 24-21 24 42 0 41 7 83 20 115 30 76 24 103-13 62"/><path d="m1917 8594c-3-4 3-14 14-23 11-9 23-36 28-61l9-45 1 57c1 47-2 59-18 68-23 12-26 12-34 4"/><path d="m2380 7581c0-5 12-35 27-67 23-51 27-75 33-212 5-118 11-157 23-169 19-19 41-8 31 16-5 9-10 81-13 161-6 139-7 148-39 213-18 37-40 67-48 67-8 0-14-4-14-9"/><path d="m5298 7533c-29-33-59-103-75-176-28-128-53-164-259-378-103-106-136-163-120-204 10-27 27-12 48 42 14 39 47 81 140 180 67 70 137 149 156 176 18 26 36 47 39 47 3 0 3-19 0-43-7-48 5-79 24-60 7 7 11 53 10 136l-2 124 41 77c37 71 42 96 21 96-4 0-15-8-23-17"/><path d="m2234 7326c-3-8 4-29 16-46 14-19 20-40 17-56-3-18 0-24 14-24 25 0 26 53 1 100-21 39-39 49-48 26"/><path d="m5420 7282c-48-50-69-97-51-115 14-14 30 0 48 44 8 21 19 39 23 39 16 0 71 60 65 70-13 21-40 9-85-38"/><path d="m2566 7193c-16-17-1-35 56-65 79-42 176-132 211-197 15-27 31-76 35-108 5-42 11-58 22-58 24 0 16 80-15 158-32 78-96 155-177 210-60 41-122 69-132 60"/><path d="m3032 6888c-18-18-15-35 18-132 51-151 164-295 194-247 3 4-13 27-35 50-22 24-50 59-62 79-36 58-87 188-87 221 0 34-11 46-28 29"/><path d="m4666 6798c-3-13-7-57-8-99-3-69-7-82-41-132-43-65-46-80-16-75 49 7 85 100 96 246 5 72 4 82-10 82-9 0-19-10-21-22"/><path d="m2912 6708c-16-16-15-62 3-103 18-46 113-145 136-145 31 0 22 23-32 75-60 59-93 118-85 151 7 26-5 39-22 22"/><path d="m3580 6677c0-26 95-67 173-76 97-11 117-22 117-66 0-24 5-35 14-35 23 0 29 36 11 70-23 45-70 70-131 70-31 0-75 10-112 25-72 29-72 29-72 12"/><path d="m4825 6668c-2-7-16-49-29-92-23-72-31-86-98-153-54-54-69-76-61-84 15-15 52 13 119 92 38 45 58 80 82 148 17 49 28 92 25 95-11 10-33 6-38-6"/><path d="m3180 6460c0-13 9-38 21-57 34-55 60-151 68-254 6-80 13-108 44-173 34-71 40-78 89-101 58-27 118-33 118-12 0 7-20 18-44 25-98 26-138 92-155 257-12 110-40 202-83 274-37 60-58 75-58 41"/><path d="m3922 6408c41-199 63-288 70-288 22 0-1 197-32 267-20 45-46 59-38 21"/><path d="m4601 6303c-24-30-26-34-45-161-17-110-46-166-105-202-22-14-41-31-41-37 0-25 50-13 88 21 58 53 91 121 102 215 6 44 19 101 30 127 28 65 10 88-29 37"/><path d="m3952 6020c-20-33-99-78-158-91-30-7-54-16-54-21 0-13 108-9 144 6 50 21 106 74 106 102 0 29-21 31-38 4"/><path d="m4010 6029c0-26 44-79 85-103 43-26 125-37 125-17 0 11-25 21-55 21-15 0-46 21-83 55-62 57-72 63-72 44"/><path d="m3100 5973c1-62 32-133 59-133 27 0 34 15 15 31-23 19-41 58-49 107-9 57-25 54-25-5"/><path d="m3234 5936c-3-19-1-49 6-68 11-29 10-38-9-68-29-48-27-91 5-129 14-17 32-31 40-31 20 0 17 14-5 34-28 25-33 61-17 101l15 35 46-35c46-35 78-44 90-26 3 6-7 18-22 28-15 10-49 39-75 65-41 41-48 53-48 88 0 49-17 53-26 6"/><path d="m4590 5905c0-32-8-57-27-86-19-28-23-43-15-51 14-14 31-2 43 29l9 25 21-26c20-26 22-46 7-105-1-8 5-16 14-19 12-2 20 7 29 36 9 33 8 44-6 73-10 19-24 42-33 51-10 12-13 28-8 49 6 31-7 69-24 69-6 0-10-20-10-45"/><path d="m3980 5784c0-45-17-62-68-70-73-10-100-28-112-74-12-46-32-62-115-90-32-11-67-28-77-37-33-30-15-106 21-84 10 7 10 13 2 29-15 28-14 42 4 42 7 0 37 5 66 11 55 12 123 63 135 102 11 37 46 67 85 73 57 9 110 71 95 111-10 24-36 15-36-13"/><path d="m4056 5774c-11-29-6-48 26-101 33-54 49-64 130-84 26-6 52-17 58-24 5-6 13-40 16-74l7-62 63-31c56-27 64-35 64-59 0-34 13-44 31-23 18 22-4 61-51 90-67 43-80 60-80 109 0 58-24 83-109 116-83 31-116 62-124 117-7 43-20 54-31 26"/><path d="m3984 5618c-4-6-8-53-10-104-1-52-5-102-9-113-9-28-55-41-107-30-23 6-57 8-74 4-41-7-85-41-77-60 6-17 33-21 33-5 0 5 10 16 23 25 21 13 30 13 81 0 81-21 94-19 132 19l35 35-3 98c-1 54 1 108 6 121 5 16 4 22-8 22-8 0-18-5-22-12"/><path d="m4610 5566c0-16-15-38-45-64-50-44-54-52-24-52 33 0 58 18 79 60 24 47 26 80 5 80-9 0-15-9-15-24"/><path d="m3310 5532c0-46 89-115 141-110 48 4 50 28 3 28-32 0-45 7-86 50-26 28-50 50-53 50-3 0-5-8-5-18"/><path d="m3555 5363c-12-54-31-81-95-135-65-55-77-77-66-124 4-16 14-24 27-24 16 0 19 4 14 18-21 49-18 60 25 89 23 15 57 41 75 56 36 30 71 106 62 132-10 25-36 17-42-12"/><path d="m4022 5373c6-34 67-57 153-59 103-1 105-1 105-19 0-20 29-19 37 2 4 10-2 23-16 35-19 15-41 18-120 18-80 0-100 4-121 20-31 24-42 25-38 3"/><path d="m3990 5303c0-10 7-26 14-36 10-13 11-28 5-55-13-58-11-69 20-104 27-31 31-32 132-37 96-6 105-8 114-28 13-31 45-30 45 1 0 37-21 46-132 61-91 12-105 16-126 41-20 23-23 35-19 73 6 51-3 75-33 91-17 9-20 8-20-7"/><path d="m4465 5300c-3-5 12-28 34-49 23-22 41-43 41-46 0-3-7-22-15-42-20-47-19-63 3-63 35 0 54 78 31 123-13 26-70 87-80 87-4 0-11-4-14-10"/><path d="m4407 5283c-4-3-7-25-7-48 0-28-10-62-31-100-22-41-27-61-20-68 16-16 34 7 65 86 27 69 31 93 20 121-7 17-16 20-27 9"/><path d="m3547 5202c-33-36-19-79 46-149 23-24 30-41 29-68-1-29 2-35 19-35 44 0 33 41-44 154-33 49-38 62-28 77 23 38 7 53-22 21"/><path d="m3948 5123c-13-27-16-28-107-33-81-5-95-8-112-28-10-13-16-29-12-37 4-12 9-10 23 7 15 19 27 22 108 22 82 1 93 3 117 26 26 24 31 60 8 67-6 2-17-9-25-24"/><path d="m4007 5042c-9-13 6-222 15-222 27 0 39 155 16 205-11 25-23 32-31 17"/><path d="m4297 4984c-4-4-4-38-1-75 10-106-17-120-142-77-49 18-68 20-81 12-24-15-14-30 18-26 14 2 54-11 90-28 77-36 90-37 126-6 29 25 31 38 21 155-3 42-16 60-31 45"/><path d="m3647 4922c-20-22-23-115-4-151 21-42 41-47 95-28 35 13 63 16 103 11 60-7 98 6 132 44 14 15 16 25 9 37-8 15-13 13-37-20-25-32-32-36-59-30-78 16-124 17-156 0-42-22-56-15-71 33-10 33-9 45 5 73 19 38 8 58-17 31"/><path d="m4306 4753c-12-12-6-43 19-104 20-49 22-64 12-80-9-14-9-21 0-30 36-36 47 75 13 126-11 17-20 42-20 57 0 27-12 43-24 31"/><path d="m4013 4643c-1-104 5-123 43-123 27 0 32 17 9 26-11 5-15 22-15 69 0 79-9 125-25 125-8 0-12-29-12-97"/><path d="m3671 4686c-47-76-57-156-18-156 22 0 26 10 16 36-7 19-3 39 15 84 27 67 19 89-13 36"/><path d="m3640 4335c0-56 111-92 250-81 324 24 405 36 397 59-5 15-62 15-197-2-58-7-155-13-216-14-101-1-116 2-166 26-64 31-68 32-68 12"/><path d="m3888 4203c-46-3-58-7-58-21 0-15 15-17 147-17 82 0 166-4 188-8 37-8 39-10 20-23-24-18-208-78-319-104-87-21-228-26-271-10-20 8-27 7-32-6-9-24 10-31 104-37 140-10 367 39 512 111 154 77 120 105-139 116-52 2-121 2-152-1"/><path d="m4152 3628c-68-26-142-94-142-131 0-38 16-34 44 11 19 31 37 43 97 66 88 34 122 54 114 66-10 16-55 11-113-12"/><path d="m4495 2848c-2-7-5-42-7-78-3-49-14-87-42-150-63-138-85-212-97-318-12-104-7-156 14-149 8 2 14 40 18 108 8 123 10 131 83 286 66 141 83 210 67 271-12 41-28 55-36 30"/><path d="m4754 2243c-21-63-65-129-125-189-38-38-69-76-69-86 0-33 37-19 82 31 50 56 142 207 142 235 1 25-22 33-30 9"/><path d="m4343 2104c-9-23 25-123 54-162 27-36 64-55 88-46 25 10 18 34-10 34-38 0-63 32-87 115-22 75-33 89-45 59"/><path d="m3442 2620c-18-29-15-59 19-187 31-116 35-203 14-270-5-17-3-25 10-29 30-12 48 20 53 98 5 84-14 172-54 256-23 47-25 58-16 95 15 56 0 78-26 37"/><path d="m3403 1928c9-99 15-118 39-118 17 0 19 4 13 23-5 12-9 49-9 82-1 65-9 85-33 85-14 0-15-10-10-72"/><path d="m4144 1851c-8-36-23-41-143-41-76 0-103 4-139 21-33 16-46 19-55 10-18-18 4-44 49-58 56-17 227-16 268 1 57 24 91 96 46 96-15 0-22-8-26-29"/><path d="m4817 1544c-14-15 7-24 53-24 42 0 52-4 75-32 22-26 25-37 20-70-5-30-4-38 9-38 35 0 48 78 20 119-9 13-32 29-50 37-34 14-116 19-127 8"/><path d="m4689 663c-13-36 6-57 27-29 8 11 14 28 14 38 0 28-29 21-41-9"/><path d="m4464 1067c-10-28 0-82 16-82 11 0 15 12 15 44 0 44-19 68-31 38"/></g></svg>